<?xml version="1.0" encoding="UTF-8" standalone="no"?>
<!-- Created with Inkscape (http://www.inkscape.org/) -->

<svg
   xmlns:dc="http://purl.org/dc/elements/1.1/"
   xmlns:cc="http://creativecommons.org/ns#"
   xmlns:rdf="http://www.w3.org/1999/02/22-rdf-syntax-ns#"
   xmlns:svg="http://www.w3.org/2000/svg"
   xmlns="http://www.w3.org/2000/svg"
   xmlns:sodipodi="http://sodipodi.sourceforge.net/DTD/sodipodi-0.dtd"
   xmlns:inkscape="http://www.inkscape.org/namespaces/inkscape"
   width="451.2088"
   height="548.11713"
   id="svg2"
   version="1.1"
   inkscape:version="0.48.4 r9939"
   sodipodi:docname="owls.svg">
  <defs
     id="defs4" />
  <sodipodi:namedview
     id="base"
     pagecolor="#ffffff"
     bordercolor="#666666"
     borderopacity="1.0"
     inkscape:pageopacity="0.0"
     inkscape:pageshadow="2"
     inkscape:zoom="0.71771338"
     inkscape:cx="128.11089"
     inkscape:cy="312.66416"
     inkscape:document-units="px"
     inkscape:current-layer="layer1"
     showgrid="false"
     inkscape:window-width="1276"
     inkscape:window-height="761"
     inkscape:window-x="0"
     inkscape:window-y="18"
     inkscape:window-maximized="0"
     fit-margin-top="0"
     fit-margin-left="0"
     fit-margin-right="0"
     fit-margin-bottom="0" />
  <metadata
     id="metadata7">
    <rdf:RDF>
      <cc:Work
         rdf:about="">
        <dc:format>image/svg+xml</dc:format>
        <dc:type
           rdf:resource="http://purl.org/dc/dcmitype/StillImage" />
        <dc:title></dc:title>
      </cc:Work>
    </rdf:RDF>
  </metadata>
  <g
     inkscape:label="Layer 1"
     inkscape:groupmode="layer"
     id="layer1"
     transform="translate(-138.96614,-392.90037)">
    <path
       style="fill:#000000"
       d="m 577.70233,938.88657 c -0.73235,-1.17197 -1.58895,-5.32372 -1.90359,-9.22624 -0.67413,-8.36224 -2.04091,-8.18817 -3.00471,0.3825 -0.34547,3.07218 -0.83089,5.79843 -1.07869,6.05826 -0.2478,0.25986 -1.37128,-0.15312 -2.49666,-0.91762 -1.87124,-1.27118 -2.56997,-1.19462 -8.17546,0.89588 -5.25482,1.95984 -6.5979,2.14242 -9.41294,1.2798 -1.80598,-0.55337 -3.28358,-1.33862 -3.28358,-1.74508 0,-1.61891 3.43252,-3.80983 10.2388,-6.53497 7.14333,-2.86023 10.59173,-5.4061 8.37988,-6.18674 -0.59555,-0.21025 -1.89182,-1.07266 -2.88065,-1.91645 -2.7572,-2.35305 -0.93673,-6.66484 4.30221,-10.18987 5.40594,-3.63727 8.21225,-6.83941 7.83171,-8.93633 -0.25159,-1.38643 -1.37691,-1.77084 -6.28679,-2.14772 -4.77621,-0.36659 -6.29309,-0.86424 -7.53379,-2.47173 l -1.55349,-2.01253 -3.68827,1.91334 c -2.35617,1.22237 -6.27347,2.11505 -10.84596,2.4717 l -7.1577,0.55827 -2.02809,4.45339 c -1.11543,2.44936 -1.79902,4.69349 -1.5191,4.98702 0.27994,0.29351 5.13287,-0.23069 10.78431,-1.16496 5.65142,-0.93417 12.04845,-1.88016 14.21563,-2.10203 l 3.94029,-0.40346 -1.86773,2.16467 c -1.02724,1.19061 -2.49053,3.45789 -3.25178,5.03852 -2.07004,4.29816 -5.79056,8.60264 -7.43593,8.60304 -0.79998,9e-5 -3.31783,-2.16889 -5.59519,-4.82017 l -4.14068,-4.82045 -2.44442,3.03589 c -2.94313,3.6553 -4.9468,3.25476 -6.37216,-1.27379 -1.11607,-3.54577 -2.8862,-4.92066 -5.57369,-4.32912 -1.24959,0.27498 -0.21572,-1.17237 3.20096,-4.48114 2.7757,-2.68806 5.04137,-5.65121 5.03481,-6.58478 -0.007,-0.93357 -1.21711,-2.87797 -2.69019,-4.32071 -3.08916,-3.02578 -2.81261,-4.20796 2.41939,-10.34209 3.27001,-3.83388 3.4527,-5.99664 0.59975,-7.10088 -1.35234,-0.52339 -2.87933,0 -5.69154,1.95823 -5.76907,4.01316 -6.69356,3.68377 -6.22679,-2.21806 0.49528,-6.2622 -1.34596,-10.21294 -5.75563,-12.34994 -4.46927,-2.16576 -4.89204,-3.09773 -2.4356,-5.36881 l 2.12049,-1.96044 -6.07146,-2.81192 c -3.33932,-1.54646 -6.30615,-3.45307 -6.59297,-4.23673 -0.28681,-0.78375 -0.87335,-1.425 -1.30342,-1.425 -1.46345,0 -0.73897,2.28742 1.86928,5.90183 1.43137,1.98359 2.58611,4.66905 2.56606,5.96778 -0.0356,2.30055 -0.11704,2.26687 -3.17425,-1.31116 -6.16369,-7.21401 -8.32273,-13.5234 -5.07482,-14.83023 2.27422,-0.91507 7.75779,1.85252 8.99001,4.53734 0.98839,2.15354 1.66675,2.48884 5.03484,2.48884 5.01823,0 5.10883,-1.62452 0.39002,-6.99226 -5.83251,-6.63465 -3.97068,-9.72715 3.80525,-6.32048 1.72891,0.75746 4.33822,1.37717 5.79848,1.37717 3.70961,0 3.46592,-2.49278 -0.40969,-4.1907 -3.24938,-1.42355 -3.92222,-2.86683 -1.74487,-3.74291 0.79108,-0.31831 2.72139,0.79668 4.81843,2.78318 4.35546,4.12585 7.13458,4.28525 9.76139,0.55985 2.41881,-3.43036 3.28683,-3.43857 6.37366,-0.0601 l 2.46166,2.69409 -1.86003,2.47937 c -3.45165,4.60105 -1.79507,12.64073 3.81714,18.52533 3.01459,3.16087 4.33023,3.90504 6.90418,3.90504 l 3.17987,0 0,4.97849 c 0,4.88239 -0.0595,4.99903 -3.08712,6.04676 -1.69794,0.58753 -5.93376,3.92407 -9.41293,7.41461 -3.4792,3.49046 -7.01536,6.58138 -7.85815,6.86877 -0.84278,0.28732 -1.53234,0.88898 -1.53234,1.33703 0,1.53382 6.30225,2.05523 12.296,1.01735 3.29538,-0.5707 8.02328,-1.03758 10.50643,-1.03758 3.88745,0 4.85587,0.38279 6.96873,2.75439 1.34961,1.5149 2.7511,2.75431 3.11441,2.75431 0.36332,0 2.00088,-1.07186 3.63907,-2.38202 2.05516,-1.64366 2.89509,-2.99551 2.7095,-4.36109 -0.24237,-1.78337 -0.80541,-1.97897 -5.69469,-1.97897 -7.29751,0 -8.25786,-1.19032 -4.15624,-5.15165 5.38997,-5.20568 6.32502,-6.39007 6.70943,-8.49853 0.67018,-3.67604 -0.0887,-4.25317 -5.59181,-4.25317 -6.21885,0 -6.40269,-1.11173 -0.75648,-4.57414 4.38417,-2.68856 5.79408,-4.63395 4.97679,-6.86707 -0.50033,-1.36718 -1.35307,-1.50867 -6.04979,-1.00411 l -5.46736,0.58744 2.62686,-2.32961 c 1.44479,-1.28119 3.49486,-2.33162 4.55578,-2.33411 1.81001,0 1.89626,-0.30154 1.39952,-4.82466 -1.53306,-13.95934 -6.96148,-21.573 -24.07521,-33.7669 -9.39248,-6.69237 -14.39363,-10.99321 -12.77623,-10.98725 0.61874,0.002 4.86829,1.8596 9.44339,4.12738 7.71477,3.82405 12.26686,5.10313 12.25295,3.44297 -0.005,-0.37875 -0.78864,-1.92805 -1.74547,-3.44297 -0.95683,-1.51487 -1.74233,-3.27079 -1.74547,-3.90199 -0.008,-1.86378 2.45417,-1.3092 3.05889,0.68857 0.30571,1.00993 1.13045,1.83625 1.83275,1.83625 1.10161,0 1.09104,-0.37688 -0.0771,-2.74536 -1.63252,-3.31013 -5.76432,-5.59365 -14.18102,-7.83735 -5.61347,-1.49642 -6.20339,-1.85978 -5.44183,-3.35185 1.17704,-2.3061 3.4576,-2.09544 7.35758,0.6796 3.5245,2.50787 4.49526,2.22719 4.96281,-1.43494 0.19563,-1.53257 0.92455,-2.3896 2.19344,-2.57909 l 1.90037,-0.28382 -2.01783,-6.22063 c -1.10983,-3.42135 -2.28161,-8.04489 -2.60397,-10.27456 -1.28071,-8.85806 -1.27585,-8.84764 -4.38886,-9.37733 -1.61082,-0.27408 -6.31755,-2.24277 -10.4594,-4.37485 -7.05512,-3.63169 -7.86042,-3.84035 -12.75239,-3.30423 -4.31365,0.47274 -5.13829,0.34425 -4.74189,-0.73897 0.79195,-2.16391 5.76978,-5.66663 10.61993,-7.47286 l 4.55819,-1.69749 -6.33065,-6.28451 c -9.57566,-9.50592 -14.64845,-11.63806 -8.08189,-3.39694 1.71895,2.15732 3.06467,4.86079 3.06467,6.15681 0,2.16763 -0.20067,2.27114 -3.24286,1.67271 -4.80868,-0.9459 -9.51297,-3.75518 -11.9437,-7.13248 -2.54972,-3.54258 -5.18437,-9.87824 -4.10784,-9.87824 0.41556,0 2.76019,2.64151 5.21028,5.87005 5.14641,6.78144 7.42195,8.32802 6.52446,4.43432 -0.70372,-3.05304 -2.81562,-6.37106 -8.47917,-13.32158 -2.38085,-2.92186 -4.07984,-5.57357 -3.7755,-5.89265 1.03679,-1.08709 4.76089,1.77503 6.35955,4.88757 0.87687,1.70731 1.89873,3.10418 2.27079,3.10418 0.93864,0 0.84595,-3.08566 -0.17734,-5.908 -1.41317,-3.89728 0.87275,-2.86735 6.13758,2.76532 4.68585,5.0132 9.3066,8.349 10.2275,7.38338 1.2145,-1.27347 -5.32301,-10.58753 -21.13249,-30.10769 -6.366,-7.86018 -7.25259,-8.61373 -10.80921,-9.18739 -5.66534,-0.91375 -8.86289,-4.55682 -10.12897,-11.54016 -0.66141,-3.64826 0.38111,-3.79208 3.32777,-0.45907 2.10964,2.38622 2.65572,2.52484 9.94703,2.52484 6.77665,0 8.11099,-0.27913 10.97261,-2.29529 3.83257,-2.70026 8.02633,-8.9328 9.53915,-14.17651 0.59428,-2.05983 1.05801,-8.44956 1.03681,-14.28518 -0.0454,-12.51191 -1.95391,-18.91012 -7.4462,-24.96393 -3.14579,-3.46739 -3.66476,-3.70857 -6.97763,-3.24267 -1.9685,0.27687 -4.88953,1.44489 -6.49122,2.59564 l -2.91214,2.09229 3.69824,3.87769 c 8.34077,8.74561 8.80377,23.06351 1.04336,32.26509 -1.37788,1.63378 -2.67669,2.06578 -6.21068,2.06578 -4.37652,0 -7.6011,1.47326 -9.76011,4.4592 -1.49891,2.07304 -2.71997,0.55503 -3.39319,-4.21837 -0.67948,-4.81773 -2.4948,-7.58579 -4.97486,-7.58579 -2.30444,0 -2.00025,-1.57411 0.8898,-4.60439 2.15487,-2.25946 2.56693,-3.52971 2.9457,-9.08037 0.31298,-4.58623 1.15767,-7.93996 2.91953,-11.59121 2.72876,-5.65503 10.96077,-15.02614 17.05227,-19.41187 4.15489,-2.99143 16.66452,-9.81218 19.78632,-10.78833 4.25516,-1.33049 3.80094,-13.14209 -0.76149,-19.80239 -1.34736,-1.96684 -1.64959,-2.0586 -2.62688,-0.79754 -0.6074,0.78374 -2.40063,1.95887 -3.985,2.6114 -1.58435,0.65252 -3.44226,2.02711 -4.12866,3.05467 -1.05307,1.57644 -1.32921,1.64634 -1.76793,0.44759 -0.28596,-0.78133 0.82422,-4.07724 2.46705,-7.32425 l 2.98696,-5.90359 2.97503,1.12807 c 4.5624,1.72993 7.0101,1.54535 7.53726,-0.56848 0.25189,-1.00992 0.81843,-1.83622 1.25896,-1.83622 1.53054,0 1.82586,2.84176 0.72411,6.9679 -1.61093,6.03282 -0.12041,7.13667 3.91841,2.90185 4.18693,-4.39013 4.34308,-8.82294 0.41413,-11.75637 -3.01498,-2.25106 -2.36036,-4.55776 0.79152,-2.78905 0.98323,0.55174 2.01059,1.00318 2.28306,1.00318 1.04015,0 0.38661,-2.38891 -1.25587,-4.59059 -2.14891,-2.88058 -2.2538,-5.51331 -0.21891,-5.49465 2.01248,0.0176 2.81559,0.69076 5.74109,4.80603 1.86259,2.62009 3.06472,3.44298 5.02984,3.44298 1.42026,0 2.58232,-0.44496 2.58232,-0.98876 0,-0.97742 -2.81847,-4.01871 -7.31514,-7.89344 -3.0674,-2.64316 -2.92244,-3.79373 0.52188,-4.14283 3.6718,-0.37216 4.12971,-2.70491 1.14524,-5.83426 -1.56616,-1.64217 -3.00465,-2.28683 -4.65729,-2.08721 -1.98793,0.24009 -2.43748,0.79207 -2.66561,3.27271 -0.30665,3.33497 -0.81655,3.58933 -3.27965,1.6359 -2.32882,-1.84692 -2.84615,-1.73936 -3.17156,0.65939 -0.29025,2.13958 -0.84147,2.24644 -5.75202,1.11485 -3.6453,-0.84004 -3.61359,0.0291 0.21892,6.00058 4.01376,6.25388 4.0586,9.35356 0.15676,10.83298 -3.91816,1.4856 -3.82639,1.51902 -5.40467,-1.96842 -0.76442,-1.68904 -3.90921,-5.25625 -6.98847,-7.92711 -5.54205,-4.80704 -8.4701,-9.45791 -6.93478,-11.01509 0.44129,-0.44753 2.77314,-0.37561 5.34172,0.16482 4.61398,0.97067 7.26232,0.60095 7.26232,-1.01392 0,-0.48677 -0.78808,-1.14732 -1.75124,-1.46786 -2.65671,-0.88413 -2.09811,-3.03681 1.15819,-4.4634 4.32692,-1.89565 9.14946,-6.7235 9.79515,-9.80592 0.62429,-2.98037 2.22058,-3.5012 3.96728,-1.29438 1.99723,2.52329 4.44485,1.19487 6.0023,-3.25774 1.17304,-3.3536 1.89482,-4.18624 3.83324,-4.42203 2.69691,-0.32809 3.10019,-2.3176 1.04683,-5.16416 -2.23696,-3.10108 -1.52629,-3.91985 3.96813,-4.57165 2.88956,-0.34278 5.25374,-0.96015 5.25374,-1.37195 0,-0.41178 -0.75185,-1.75095 -1.67081,-2.97592 -1.63814,-2.18362 -2.14263,-3.76166 -1.93541,-6.05395 0.0679,-0.75062 1.61843,-1.14765 4.48184,-1.14765 2.40796,0 4.37812,-0.38973 4.37812,-0.86607 0,-2.02727 -4.07281,-3.72453 -8.93762,-3.72453 l -5.04544,0 3.51431,-4.82012 c 8.13727,-11.16077 11.25398,-21.32423 12.08268,-39.40068 l 0.57512,-12.54568 3.43993,1.75779 c 4.37722,2.23675 4.49072,2.21618 2.79013,-0.5052 -1.34502,-2.15242 -1.94873,-6.00008 -0.94144,-6.00008 0.25998,0 2.12281,0.88268 4.13963,1.96151 7.54582,4.03642 10.22652,6.47746 12.52645,11.40648 2.57773,5.52442 4.75178,5.89903 4.75178,0.81881 0,-1.68355 0.32461,-3.27137 0.72131,-3.52844 0.80693,-0.52294 6.11773,6.60144 8.45752,11.34564 13.27036,26.90753 2.65673,62.30387 -33.0137,110.10024 -2.78335,3.72954 -5.06066,7.20474 -5.06066,7.72265 0,0.51792 1.0063,9.24135 2.23624,19.38538 3.78284,31.19955 4.77508,43.34671 5.33136,65.26779 0.79374,31.27971 -1.64815,56.03008 -7.45962,75.60853 l -1.70465,5.74292 2.1184,3.85305 c 5.33769,9.70839 8.20864,27.20674 6.4881,39.54472 -0.79517,5.70202 -0.7943,7.49002 0.005,7.76897 0.57018,0.19941 2.3695,1.58936 3.99851,3.08908 4.69548,4.32277 7.90846,12.48144 10.41271,26.44072 1.22294,6.81703 3.61855,18.59193 5.32354,26.16641 7.72128,34.30195 9.69341,48.65148 8.83274,64.2683 -1.45672,26.43161 -1.73225,29.83888 -2.41305,29.83888 -0.40134,0 -1.32887,-0.95891 -2.06121,-2.13079 z M 537.28686,733.21513 c 0.28221,-1.17899 0.12796,-3.5519 -0.3429,-5.27315 -1.10618,-4.04423 -1.0986,-4.13326 0.4944,-5.80359 1.21678,-1.2758 1.20681,-1.64566 -0.10062,-3.73802 -1.88868,-3.0224 -4.03074,-2.94708 -5.76377,0.2027 -1.78505,3.2443 -2.88113,9.41072 -1.67273,9.41072 0.49362,0 1.70157,1.65262 2.68432,3.67249 2.00379,4.11836 3.9315,4.74524 4.70139,1.52887 z m -9.11029,-16.15842 c 0.49855,-0.97675 0.90644,-3.04251 0.90644,-4.59062 0,-2.76555 -0.0765,-2.81469 -4.37812,-2.81469 -4.8758,0 -5.35878,0.85708 -3.08309,5.47135 1.94973,3.95333 5.05624,4.86987 6.55477,1.93396 z m 13.03035,-6.31914 c 3.30491,-7.51811 5.67956,-16.92948 7.16329,-28.39008 2.13023,-16.45441 -0.289,-59.55932 -4.25975,-75.89833 l -0.64845,-2.66823 -4.2944,5.27063 c -4.25339,5.2203 -4.3303,5.26499 -8.05167,4.67985 -3.73127,-0.58669 -3.77561,-0.56045 -6.40796,3.79178 -1.45788,2.41045 -2.51708,4.81042 -2.35372,5.33335 0.16327,0.52292 1.65913,1.07366 3.32405,1.22388 2.31654,0.2091 3.92374,-0.43748 6.84701,-2.75434 6.68357,-5.29712 7.10461,-5.58747 7.50037,-5.17252 0.21349,0.22386 0.49843,5.40887 0.63319,11.52224 0.22333,10.13172 0.0803,11.3459 -1.61716,13.72265 -1.82199,2.55115 -2.04881,2.60827 -10.50748,2.64534 -10.71826,0.0468 -10.58474,0.011 -8.56414,2.3514 2.08125,2.41137 5.14894,4.07762 9.11291,4.94967 1.68556,0.37084 4.39666,1.24834 6.02467,1.95002 l 2.95998,1.27576 -2.22247,1.83306 c -2.86138,2.35997 -3.45684,2.31308 -6.67403,-0.52536 -3.57043,-3.15012 -7.63805,-2.85937 -7.30461,0.52216 0.32434,3.2894 3.02304,5.23729 8.30561,5.99493 6.90314,0.99004 10.22184,2.64644 10.28053,5.13114 0.007,0.31224 -1.65275,0.80202 -3.68918,1.0884 -2.0364,0.28642 -3.84716,0.97554 -4.02385,1.53145 -0.17672,0.55588 -1.98589,-0.86351 -4.02033,-3.15418 -2.52908,-2.84763 -4.40839,-4.16491 -5.94183,-4.16491 -1.93343,0 -2.38221,0.58043 -3.25326,4.20763 -0.74374,3.09695 -2.2158,5.4541 -5.57659,8.92953 -2.51136,2.59704 -5.25309,5.76475 -6.0927,7.03932 -2.71448,4.12075 -1.67874,8.52051 2.56352,10.8896 3.45354,1.92861 5.41027,1.31012 6.7872,-2.14534 0.70428,-1.76737 1.52353,-3.21341 1.82057,-3.21341 1.43548,0 4.7586,2.44772 8.55786,6.30343 3.71336,3.76857 4.63919,4.25494 8.09948,4.25494 2.14879,0 3.90689,0.13044 3.90689,0.28988 0,0.15954 -0.4079,1.08902 -0.90642,2.06577 -1.25351,2.45586 -3.44374,2.2294 -9.46429,-0.97848 -2.84312,-1.51488 -6.40917,-2.75436 -7.92457,-2.75436 l -2.75525,0 1.7803,3.65905 c 2.34758,4.82493 5.21983,6.72475 9.5173,6.29502 2.99448,-0.29944 3.40466,-0.10416 3.40466,1.62059 0,1.91705 3.47971,7.70584 4.63207,7.70584 0.31972,0 1.81942,-2.81643 3.33265,-6.25877 z m -2.49207,-18.53042 c -0.7224,-0.48949 -3.87463,-1.77332 -7.00499,-2.85294 -7.53882,-2.60007 -13.66779,-6.10306 -15.32878,-8.76103 -1.77804,-2.84539 -1.11896,-2.72324 2.38289,0.44164 1.58194,1.42968 3.55318,2.85769 4.38053,3.17331 2.75288,1.05015 2.41296,-0.86571 -0.65962,-3.71801 -1.66855,-1.54891 -3.03371,-3.67775 -3.03371,-4.73078 0,-1.56282 0.54339,-1.91458 2.95774,-1.91458 1.62676,0 4.48346,0.71364 6.34827,1.58584 l 3.39051,1.58588 -2.84577,0.30854 c -1.56518,0.16964 -2.84579,0.61685 -2.84579,0.99366 0,0.3768 1.93794,2.93283 4.30653,5.68007 4.18487,4.85387 4.34488,4.9431 5.66369,3.15872 1.79935,-2.43448 1.78366,-2.52738 -0.94631,-5.60416 l -2.3592,-2.65891 2.97086,-0.30131 c 1.63397,-0.16568 4.12418,-1.31884 5.5338,-2.56253 1.40963,-1.2437 2.77173,-2.04239 3.02687,-1.77487 0.25514,0.26753 -0.83277,3.16502 -2.41753,6.43884 -2.24598,4.63964 -2.77092,6.66681 -2.38017,9.19157 0.27574,1.78154 0.42759,3.23285 0.33747,3.2251 -0.0901,-0.007 -0.75491,-0.41457 -1.47729,-0.90405 z m -4.09499,-52.29282 c 4.32029,-0.0339 5.05515,-0.2788 4.81179,-1.60384 -0.18197,-0.99113 -1.72868,-1.94097 -4.22341,-2.59369 -3.25369,-0.85128 -3.61459,-1.14135 -2.08152,-1.67299 1.02007,-0.35375 2.49425,-1.38418 3.27595,-2.28988 1.19529,-1.38487 1.24845,-2.03698 0.33439,-4.10095 -0.97528,-2.20217 -1.55895,-2.45493 -5.6839,-2.46137 -3.27045,-0.004 -4.59703,0.34918 -4.59703,1.22771 0,0.67918 -0.78804,1.98269 -1.75124,2.89667 -2.41099,2.28783 -2.19732,4.8759 0.50932,6.16898 2.1417,1.0232 2.16774,1.11596 0.49505,1.76475 -0.97103,0.37664 -2.16927,1.4759 -2.66276,2.44273 -0.84161,1.64891 -0.66865,1.71155 2.78851,1.00991 2.02721,-0.41141 5.98037,-0.76604 8.78485,-0.78803 z M 488.8044,637.12 c 0,-4.4238 -3.9099,-3.61212 -5.52814,1.14766 -0.45269,1.33148 -0.0261,1.60668 2.49092,1.60668 2.79094,0 3.03722,-0.22332 3.03722,-2.75434 z m 22.28801,-26.14769 c 8.89714,-1.83024 15.43524,-4.97796 17.91059,-8.62301 2.50962,-3.69551 1.82306,-3.67534 -9.36394,0.27487 -9.0953,3.21167 -16.92695,7.16419 -18.74396,9.45982 -0.83069,1.0495 -0.6306,1.19388 1.10962,0.8007 1.16769,-0.26383 5.25713,-1.1244 9.08769,-1.91238 z m 18.5903,0.37921 c 3.00816,-1.19509 6.40527,-4.41261 6.40527,-6.06666 0,-1.83647 -3.81236,-1.45972 -4.97459,0.49159 -0.6616,1.11082 -2.42034,1.8745 -5.02607,2.18248 -4.14045,0.48934 -6.97654,2.13346 -6.13703,3.55778 0.66322,1.12519 6.74415,1.02196 9.73242,-0.16527 z m 13.37922,-70.40448 c -0.0833,-1.85212 -2.57078,-5.16959 -4.02287,-5.36547 -0.9007,-0.12163 -3.11527,-0.51573 -4.92123,-0.87606 -4.40884,-0.87958 -4.24989,0.60315 0.43782,4.08453 3.39137,2.51863 8.58188,3.83486 8.50628,2.157 z m 6.86932,-16.62823 c 1.43404,-0.95359 -2.35337,-3.79989 -5.05623,-3.79989 -1.73726,0 -2.51861,2.59412 -1.19831,3.97849 0.81551,0.85511 4.87433,0.73922 6.25454,-0.17868 z m 9.75852,-16.24504 c -1.349,-1.70436 -4.33812,-1.72227 -4.33812,-0.0261 0,0.71531 1.0836,2.13363 2.40798,3.15181 2.39688,1.84269 2.40928,1.84279 2.69408,0.0261 0.15738,-1.00386 -0.1864,-2.42216 -0.76394,-3.15182 z m 3.97196,-7.73932 c 1.04308,-1.76967 -9.99291,-6.81875 -11.48484,-5.25443 -0.82139,0.8613 0.89559,3.53922 3.05969,4.77216 2.6656,1.51864 7.64624,1.80372 8.42515,0.48227 z m -9.27315,-45.74873 c 0.94892,-1.85912 -0.46036,-5.72937 -2.32049,-6.37267 -0.76892,-0.26596 -1.09453,0.87322 -1.09453,3.82947 0,4.50206 1.75,5.8053 3.41502,2.5432 z m -23.55434,475.41422 c -1.23267,-3.12039 -2.71041,-3.39135 -7.36834,-1.35065 -2.05232,0.89919 -3.70249,1.11135 -4.59056,0.59025 -1.16167,-0.68175 -0.90735,-1.19682 1.56872,-3.177 5.95843,-4.76534 10.85296,-5.58376 12.14142,-2.03038 0.94956,2.61872 3.3849,2.95613 8.8792,1.2301 4.02455,-1.26438 4.65315,-0.85532 3.33769,2.17198 -1.35426,3.11656 -5.24763,5.32 -9.39999,5.32 -3.04118,0 -3.61726,-0.34733 -4.56814,-2.7543 z m -74.11714,-6.2112 c 0.74137,-1.25785 8.31988,-4.32581 8.97881,-3.63496 0.77521,0.81282 -3.38272,3.32832 -6.62568,4.00835 -2.00191,0.41979 -2.75065,0.30094 -2.35313,-0.37339 z m -21.82566,-3.05663 c -9.44569,-1.63604 -9.12865,-2.54869 0.90654,-2.6095 8.23384,-0.0501 9.41805,0.12386 8.31842,1.22037 -1.89615,1.89099 -4.26675,2.24793 -9.22496,1.38913 z m 24.15519,-3.71323 c 0.0316,-2.92726 1.44836,-3.64608 6.63501,-3.3657 l 5.17251,0.27969 -2.65713,1.52803 c -3.89514,2.23982 -9.16732,3.13761 -9.15039,1.55798 z m -19.21206,-6.68278 c -2.20667,-2.4661 -6.64218,-4.19335 -10.79138,-4.20216 -1.32438,0 -2.40797,-0.41036 -2.40797,-0.90572 0,-1.22126 2.79029,-1.80148 9.99985,-2.07928 3.86429,-0.149 6.18918,-0.64476 6.41729,-1.36868 0.19669,-0.62432 -1.81483,-3.4132 -4.47012,-6.19726 -5.67611,-5.95164 -8.51622,-6.60112 -10.57872,-2.4191 -2.27122,4.6052 -5.98791,4.77417 -5.6597,0.25724 0.51372,-7.0702 -1.02659,-9.05799 -9.71685,-12.53992 -4.22577,-1.69307 -6.09929,-2.89471 -5.79783,-3.71845 1.16571,-3.18521 2.2962,-8.94334 3.23565,-16.48082 0.56646,-4.5447 1.34931,-9.08937 1.73969,-10.0993 0.65246,-1.68795 0.72494,-1.65087 0.89733,0.45907 0.32332,3.95694 -0.14331,7.56714 -1.95131,15.09622 l -1.7511,7.29217 2.03184,1.63905 c 1.11752,0.90149 2.42588,1.65799 2.90746,1.68124 0.48161,0.0231 3.1413,1.01915 5.91048,2.21327 l 5.03479,2.17098 0,-2.12739 c 0,-2.06966 -3.92877,-7.02801 -7.44983,-9.40201 -1.52893,-1.03087 -1.31193,-1.10723 1.75829,-0.61891 1.92638,0.30644 8.16832,1.97186 13.87098,3.70091 12.6674,3.84068 17.31008,4.04412 20.31809,0.89007 2.7535,-2.88709 2.70967,-3.44005 -0.58453,-7.37405 -2.13541,-2.55016 -2.99384,-3.0385 -3.92191,-2.23089 -0.8476,0.73765 -0.94242,1.51528 -0.33087,2.71341 0.47146,0.92365 0.85721,2.49346 0.85721,3.48835 0,1.63545 -0.60213,1.8049 -6.28291,1.76764 -5.61764,-0.037 -6.67647,-0.34352 -9.99943,-2.89622 -2.04407,-1.5702 -5.51573,-3.97157 -7.71476,-5.33634 -3.38544,-2.10122 -7.51062,-7.09897 -7.52202,-9.11331 -0.002,-0.31746 1.8194,-0.16965 4.04711,0.3286 4.26399,0.9535 17.5428,0.19911 19.5654,-1.11154 0.98031,-0.63536 0.98699,-1.25675 0.0393,-3.65572 -0.8013,-2.02838 -1.41743,-2.60117 -2.06613,-1.92094 -0.50835,0.53302 -2.34282,0.96915 -4.07656,0.96915 -1.73371,0 -3.57668,0.44502 -4.0955,0.98907 -1.25107,1.31177 -7.28758,-4.16806 -7.28758,-6.6156 0,-2.19769 3.19723,-3.55465 8.37541,-3.55465 2.13583,0 3.8833,-0.36734 3.8833,-0.81632 0,-0.44899 -2.36418,-3.21418 -5.25373,-6.14484 -2.88954,-2.93067 -5.25374,-5.66197 -5.25374,-6.06955 0,-2.07106 3.89088,-0.23364 8.15172,3.84951 2.6347,2.52484 5.03061,4.59062 5.3243,4.59062 0.29365,0 0.53394,-0.95432 0.53394,-2.12066 0,-1.1871 -1.75075,-4.27126 -3.97706,-7.00602 -2.18736,-2.68695 -4.56167,-6.07077 -5.27621,-7.5196 -1.26796,-2.57096 -1.245,-2.63424 0.95586,-2.63424 3.19863,0 6.71143,2.12269 9.9877,6.03528 2.54472,3.03894 3.04094,3.27194 4.98712,2.34219 1.18866,-0.56788 2.70518,-1.03251 3.37005,-1.03251 1.37258,0 7.02105,9.29282 7.9105,13.01426 0.51097,2.13794 0.29877,2.49455 -1.63885,2.75437 l -2.22578,0.29844 2.66606,5.80646 c 1.46632,3.19352 2.43429,6.04945 2.15108,6.34648 -0.28328,0.29692 -1.48768,0.0752 -2.67648,-0.49274 -3.75995,-1.79619 -3.51132,0.54304 0.74585,7.01709 2.21932,3.37502 4.03509,6.5479 4.03509,7.05096 0,0.50296 -0.78231,1.42691 -1.73851,2.05293 -0.95617,0.62612 -2.18503,2.99791 -2.7308,5.2705 -0.86101,3.58536 -1.2972,4.13261 -3.29633,4.13562 -1.26719,0 -3.68312,0.90351 -5.36868,2.00372 -1.68557,1.10023 -4.6408,2.26658 -6.56717,2.59207 l -3.5025,0.59165 3.49325,0.76139 c 4.40625,0.96033 11.71173,-0.57431 17.38359,-3.65179 2.33201,-1.26527 4.38681,-2.30054 4.56619,-2.30054 0.17947,0 0.75606,0.84217 1.28144,1.87153 0.75993,1.48884 0.51148,2.88779 -1.21515,6.84233 l -2.17041,4.97087 -5.9779,0.27308 -5.97791,0.27309 0.25554,3.69177 c 0.21692,3.1331 -0.23713,4.29545 -2.99991,7.67978 -1.81596,2.2245 -3.47772,5.39638 -3.75806,7.17312 l -0.50255,3.18521 -2.12402,-2.37369 z m 16.71472,-1.78547 c -4.4166,-0.98728 -5.38263,-2.4218 -1.63091,-2.4218 2.58527,0 8.49298,2.01704 8.49298,2.89971 0,0.93105 -0.81193,0.87454 -6.86207,-0.47791 z m -105.65538,-9.64804 c -3.61464,-2.35395 -7.2405,-6.55422 -5.62525,-6.51633 0.68592,0.0151 2.01202,0.63585 2.94686,1.3772 0.93483,0.74137 2.60945,1.34794 3.72138,1.34794 1.66257,0 2.0217,0.48924 2.0217,2.75441 0,1.5149 -0.0986,2.7528 -0.21891,2.75089 -0.12041,0 -1.40098,-0.77323 -2.84578,-1.71411 z m 103.43179,-0.54284 c 0.5186,-1.41699 1.50148,-1.83818 6.45877,-2.76784 l 3.06469,-0.5747 -2.45679,2.34243 c -2.74282,2.61512 -7.92618,3.34867 -7.06667,1.00011 z m 38.08158,-2.1851 c -0.7992,-0.57071 -1.01733,-1.68376 -0.63943,-3.26258 0.42993,-1.79608 1.90911,-3.06335 5.90458,-5.05877 l 5.33093,-2.6623 2.99543,1.85311 c 2.8663,1.77322 3.22927,1.79137 8.41856,0.42068 2.98275,-0.78776 5.55026,-1.29914 5.70558,-1.1362 0.73459,0.77023 -5.90593,6.53007 -9.41816,8.16902 -4.34408,2.02717 -16.27554,3.12077 -18.29749,1.67704 z m -134.94779,-3.74731 c -1.20312,-0.88886 -4.15761,-2.15904 -6.56558,-2.82244 -6.72307,-1.85231 -10.76182,-3.68537 -11.28801,-5.12319 -0.61038,-1.66782 2.36548,-1.68886 9.73756,-0.0691 5.74334,1.26196 8.66828,3.28853 9.99385,6.92409 1.0452,2.86655 0.75437,3.03549 -1.87782,1.0906 z m 17.07621,-4.94161 c -5.2406,-2.61992 -9.77216,-6.47125 -10.51967,-8.94074 -0.64035,-2.11565 -3.51977,-2.39966 -4.24471,-0.41879 -0.67228,1.83688 -3.18585,1.76752 -3.18585,-0.0882 0,-2.95333 -3.20205,-7.05045 -8.75624,-11.20391 -5.43524,-4.06467 -8.66415,-7.25449 -8.72708,-8.62158 -0.0168,-0.34813 1.61851,-0.55467 3.63227,-0.45906 3.10412,0.14741 3.73718,-0.13248 4.15922,-1.83818 l 0.49778,-2.01183 5.88409,2.72493 c 3.98721,1.84651 6.59824,2.53695 8.0995,2.14192 2.23227,-0.58755 2.96182,-2.54627 1.3398,-3.59739 -0.48158,-0.31215 -0.87562,-1.36938 -0.87562,-2.34954 0,-1.63225 0.66379,-1.78207 7.89728,-1.78207 l 7.89728,0 -0.55067,-2.30045 c -0.59103,-2.46922 4.1004,-18.18291 4.75783,-15.93599 0.72217,2.46826 3.09914,4.48843 6.3666,5.41097 5.97452,1.68684 8.49559,6.89735 3.62173,7.48535 -3.8665,0.46648 -2.86501,2.72 1.75548,3.95011 4.74598,1.26354 5.35057,0.87103 6.34341,-4.11864 0.92015,-4.62426 2.1291,-6.62514 2.16305,-3.57996 0.0352,3.15642 -1.57528,8.00202 -3.74354,11.2636 -2.22175,3.34195 -9.0559,7.9244 -11.81834,7.9244 -1.65317,0 -1.98248,0.34865 -1.51759,1.6067 0.32654,0.88365 0.93004,3.25926 1.34107,5.27911 0.41108,2.01986 1.0154,4.58337 1.34299,5.69671 0.49104,1.66882 0.17882,2.13381 -1.77929,2.6491 -2.41226,0.63482 -16.71619,-0.18731 -19.49319,-1.12027 -3.88586,-1.30565 2.92115,3.08511 7.89541,5.09272 12.52935,5.05696 13.3376,5.53398 11.91147,7.02932 -2.3365,2.44987 -6.92896,2.49355 -11.69447,0.11125 z m 13.30947,-31.94522 c 0.70051,-0.73455 0.50945,-1.48574 -0.70052,-2.75441 -2.51888,-2.64116 -4.29053,-2.22409 -4.29053,1.00993 0,2.26207 0.35997,2.75441 2.01394,2.75441 1.10766,0 2.44735,-0.45447 2.97711,-1.00993 z m 81.02595,27.89277 c -1.67128,-4.11205 -5.45976,-16.66071 -5.45976,-18.0844 0,-1.4732 1.89776,0.75709 3.57182,4.19775 1.67375,3.44004 4.73557,17.16026 4.00131,17.93008 -0.18136,0.19021 -1.1323,-1.62942 -2.11337,-4.04343 z m 5.85476,-0.12314 c 0.63151,-1.23722 1.85039,-1.97056 3.27544,-1.97056 2.18831,0 2.25495,-0.16043 1.85932,-4.47774 -0.26085,-2.84639 -1.90065,-7.58077 -4.50092,-12.99479 -2.2498,-4.68437 -3.85309,-8.76337 -3.56285,-9.0644 0.94055,-0.97596 4.65288,4.7907 7.1018,11.03175 l 2.38856,6.08713 1.63308,-2.17679 c 1.05381,-1.40475 2.54231,-2.17699 4.19638,-2.17699 4.27535,0 3.12747,-2.95342 -4.48106,-11.52969 -4.15209,-4.68017 -7.6337,-10.5051 -6.27902,-10.5051 0.40235,0 3.16547,2.69473 6.14025,5.98826 3.5188,3.89591 6.33062,6.18163 8.04718,6.5416 2.34943,0.49274 2.63951,0.91794 2.64811,3.88149 0.005,1.83055 0.25386,4.87757 0.55238,6.77116 0.53547,3.39677 0.59695,3.44316 4.58735,3.45698 2.22457,0.009 4.56947,0.36287 5.21094,0.78927 1.94028,1.28973 -4.74476,6.33686 -9.87289,7.45391 -11.48563,2.50197 -15.97249,3.55128 -17.88034,4.18152 -1.9034,0.62872 -1.98878,0.52541 -1.06371,-1.28701 z m 25.63231,-22.85779 c -0.97599,-0.88367 -4.20864,-4.6987 -7.18367,-8.47777 -2.97502,-3.77905 -6.54765,-7.70405 -7.93916,-8.72213 -3.20142,-2.34223 -3.27001,-3.60837 -0.15236,-2.8128 5.947,1.51758 11.8949,8.18517 16.2145,18.17654 1.68106,3.88829 1.56903,4.10725 -0.93931,1.83616 z M 354.68307,848.15603 c -2.38057,-3.81316 -6.02883,-11.80428 -5.38914,-11.80428 0.72708,0 9.04278,9.29913 9.04278,10.11218 0,0.30487 -0.51809,1.29717 -1.15131,2.20519 -1.08863,1.56109 -1.22491,1.53313 -2.50233,-0.51309 z m -60.53531,-5.40187 c -2.94643,-2.43016 -8.33842,-4.77128 -9.40186,-4.08212 -1.34819,0.87365 -0.96056,-1.06985 0.4599,-2.30594 0.7859,-0.68389 2.59733,-0.93163 4.59701,-0.6287 12.40698,1.87947 12.56365,1.88005 11.93621,0.044 -1.04632,-3.06147 -2.16985,-3.96034 -7.49496,-5.99621 -5.64206,-2.15703 -8.21337,-5.00875 -7.28415,-8.07855 0.81998,-2.70892 3.14143,-2.3303 8.38126,1.36697 6.25716,4.41511 6.0801,4.31892 6.0801,3.30328 0,-1.89781 -4.88795,-6.86065 -10.26258,-10.41978 -4.24234,-2.80932 -5.4548,-4.07053 -4.99848,-5.1995 0.33138,-0.8198 1.11856,-3.55631 1.74932,-6.08112 0.63076,-2.52483 1.40167,-5.47187 1.71309,-6.54899 0.66379,-2.29569 -2.25816,-4.92747 -5.47081,-4.92747 -2.00595,0 -2.47313,-1.29559 -1.46272,-4.05646 0.78069,-2.13319 2.32343,-1.79118 6.09444,1.35107 2.83663,2.36367 3.86493,2.71461 6.55694,2.23772 2.93992,-0.5208 3.58965,-0.18507 8.20649,4.23916 4.7369,4.53936 18.01363,20.29164 18.01363,21.37238 0,0.8883 -17.65984,-5.91189 -23.14629,-8.91279 -2.9213,-1.59784 -5.61009,-3.04696 -5.97511,-3.22023 -1.04554,-0.49636 1.06315,4.69858 2.69477,6.63875 0.80928,0.96231 4.36634,3.16316 7.90457,4.89075 5.6315,2.74966 6.36915,3.38996 5.91918,5.13793 -0.2827,1.09825 -0.99091,5.40534 -1.57376,9.57129 -0.96294,6.88238 -1.23762,7.57449 -3.00621,7.57449 -1.07056,0 -3.11718,1.03287 -4.54801,2.29531 -3.12852,2.76022 -2.8849,2.74158 -5.68197,0.4346 z m 261.63041,-2.74229 c -1.75388,-1.91948 -2.52802,-3.70415 -2.52802,-5.82793 0,-2.75042 -0.45509,-3.31105 -4.48247,-5.52201 -5.28051,-2.89886 -13.83134,-11.41074 -9.9067,-9.86154 9.17476,3.62158 17.37571,9.45932 19.58681,13.94267 1.35863,2.75481 1.77231,10.03552 0.57019,10.03552 -0.39151,0 -1.84941,-1.24502 -3.23981,-2.76671 z m -183.4315,-0.47899 c 0,-1.10901 -0.36105,-1.20689 -1.6937,-0.45906 -3.48687,1.95669 -5.05007,1.19563 -5.65209,-2.75183 -0.59811,-3.92199 -2.54304,-6.20939 -11.84748,-13.93389 -5.33828,-4.43177 -6.38259,-6.23496 -3.61101,-6.23496 2.66575,0 7.73772,2.9196 12.2968,7.07846 7.86544,7.17499 10.7277,8.17463 14.81367,5.17383 l 2.069,-1.51953 -0.63384,3.54257 c -1.15612,6.46174 -5.74135,13.73283 -5.74135,9.10441 z m 88.87562,-14.08922 c -9.41682,-9.67172 -10.53595,-10.4454 -19.70151,-13.62035 -1.00373,-0.34768 -0.84889,-0.68161 0.65674,-1.41627 2.12733,-1.03804 2.42041,-2.19024 1.10724,-4.35322 -0.70484,-1.16092 0.0879,-1.44924 5.04822,-1.83622 l 5.88432,-0.45906 -0.0126,-3.03931 -0.0126,-3.03928 9.49325,0.28495 c 8.48425,0.25464 9.62216,0.10026 10.70641,-1.45199 0.66724,-0.9553 1.35872,-2.19476 1.53662,-2.75434 0.20615,-0.6485 3.31361,-1.01745 8.56891,-1.01745 8.23401,0 8.26001,0.007 18.76932,5.27917 5.78811,2.90356 10.99048,5.2792 11.56081,5.2792 1.10008,0 2.85746,5.48969 2.86563,8.95165 0.005,1.69617 -0.47754,2.06575 -2.69154,2.06575 -2.51372,0 -2.65902,0.17869 -2.14418,2.63652 0.30377,1.45009 0.29254,3.72166 -0.025,5.0479 l -0.57721,2.41137 -2.55812,-2.25698 c -3.34936,-2.9551 -6.09777,-3.39823 -18.70561,-3.01598 l -10.50745,0.31856 -0.27707,2.47898 c -0.32984,2.95114 -0.24758,2.93707 -4.35484,0.74552 -1.78678,-0.9534 -4.72632,-2.15954 -6.53228,-2.68034 -2.95475,-0.8521 -3.28358,-0.77314 -3.28358,0.78846 0,0.95446 1.21425,3.54167 2.69831,5.74934 1.75123,2.60505 2.59641,4.85317 2.40795,6.40496 -0.26997,2.22323 -0.96634,1.69674 -9.92218,-7.50154 z m 29.33335,-12.04488 c 1.13345,-0.76804 1.11165,-0.89192 -0.15906,-0.90407 -0.80989,-0.007 -5.11562,-1.87322 -9.56831,-4.14556 -7.86835,-4.01548 -10.53864,-4.72759 -13.40429,-3.57455 -1.29543,0.52121 6.37686,5.08415 13.93761,8.2891 3.23256,1.37024 7.44008,1.52359 9.19405,0.33508 z m 6.54337,-10.05898 c 0.28458,-0.48277 -0.49637,-1.57426 -1.73541,-2.42553 -1.80765,-1.24187 -2.67832,-1.34446 -4.40602,-0.51907 -3.66246,1.74974 -2.72144,3.8224 1.73543,3.8224 2.13874,0 4.12144,-0.395 4.406,-0.8778 z m 36.79992,21.50553 c -1.92638,-1.24737 -5.27564,-2.95538 -7.4428,-3.79558 -5.9845,-2.32016 -6.38477,-3.34088 -1.11604,-2.84594 4.90293,0.46056 10.81356,3.82811 12.49253,7.11759 1.22698,2.40387 0.35007,2.29775 -3.93369,-0.47607 z M 416.60347,819.9444 c -2.0978,-0.47169 -2.7838,-1.28785 -3.61619,-4.30237 -2.42489,-8.78189 -7.94804,-15.96885 -15.46649,-20.12581 -4.10694,-2.27072 -4.16376,-3.23418 -0.19082,-3.23418 3.47287,0 7.77962,1.78436 10.63848,4.40768 3.0347,2.78464 6.40801,8.50655 6.40801,10.86942 0,1.5726 0.49241,2.16717 1.79474,2.16717 2.53441,0 6.0967,2.1195 9.06514,5.39355 2.12728,2.34634 2.35952,3.03295 1.42511,4.21349 -1.14615,1.44807 -5.23133,1.69627 -10.05801,0.61105 z m -22.04129,-7.4512 c -2.92841,-1.23979 -7.40191,-7.43114 -11.3937,-15.76903 -2.0158,-4.21055 -3.50436,-7.82546 -3.30788,-8.03313 0.77202,-0.81607 10.4093,8.93298 11.99224,12.1313 1.64932,3.33239 1.77612,3.39526 6.84833,3.39526 4.00039,0 5.56352,0.41483 6.91913,1.83622 2.21959,2.32732 2.24516,5.16695 0.0575,6.39454 -2.01465,1.13053 -8.4896,1.15667 -11.11567,0.0448 z m 27.60254,-6.31879 c -1.25479,-1.32873 -3.91449,-3.78195 -5.91045,-5.4516 -2.52269,-2.11029 -3.62899,-3.7385 -3.62899,-5.34104 0,-1.96422 0.29151,-2.21267 1.97015,-1.67907 6.80885,2.16447 11.16416,6.94855 11.16416,12.26326 0,3.38035 -0.56835,3.41328 -3.59487,0.20843 z m -44.05501,7.4e-4 c -0.29794,-0.50544 -2.7171,-1.58211 -5.37591,-2.39256 -2.65882,-0.81046 -5.60676,-2.28359 -6.55098,-3.27361 -2.26908,-2.37921 -2.25038,-6.08938 0.0346,-6.84974 0.96321,-0.32053 1.75125,-0.90613 1.75125,-1.30131 0,-1.56833 -5.49487,-8.50409 -15.17267,-19.15139 -8.5422,-9.39789 -15.43236,-18.96663 -15.4659,-21.4783 -0.005,-0.3386 1.11953,-0.87534 2.49785,-1.19279 4.25183,-0.97918 10.05005,1.20913 15.55021,5.86886 7.98049,6.76104 11.34529,8.16602 9.12123,3.80858 -1.37474,-2.69332 0.72969,-3.39982 4.50254,-1.51155 5.02866,2.51677 6.97972,6.69189 10.70943,22.91734 0.59465,2.58688 0.54154,2.63519 -2.25157,2.04943 -1.57332,-0.32992 -3.85994,-1.57492 -5.08132,-2.76668 -3.02142,-2.94803 -5.58483,-4.22739 -8.47023,-4.22739 l -2.42434,0 3.09127,3.44294 c 6.59657,7.34702 10.79039,14.32133 13.55852,22.54785 1.16945,3.47543 1.15559,5.51136 -0.024,3.51032 z m -11.8924,-37.30514 c 0,-3.1964 -0.021,-3.21341 -3.94031,-3.21341 -3.91944,0 -3.94029,0.0176 -3.94029,3.21341 0,3.19642 0.021,3.21341 3.94029,3.21341 3.91944,0 3.94031,-0.0176 3.94031,-3.21341 z m 140.35006,25.27804 c -1.06617,-0.90616 -3.82438,-1.9255 -6.12934,-2.26519 -6.52648,-0.96187 -9.7039,-2.28666 -11.62443,-4.84672 -2.35352,-3.13723 -1.20921,-4.44992 4.5812,-5.25531 5.30259,-0.73757 6.79269,-1.76725 6.79269,-4.69383 0,-2.02067 0.22803,-2.09462 5.03481,-1.63265 10.59195,1.0179 14.51533,3.07062 15.93106,8.3351 l 0.80244,2.98389 -3.66029,0.0132 c -5.18703,0.0198 -7.8257,1.6991 -8.88981,5.65972 -0.89165,3.31865 -0.91739,3.33407 -2.83833,1.70147 z m -239.29765,-2.32211 c 0.59827,-0.75587 3.06137,-1.98882 5.47358,-2.73996 2.41218,-0.75108 5.02467,-1.87606 5.80551,-2.49992 0.78087,-0.62388 0.43464,0.0287 -0.76932,1.44997 -2.7302,3.22314 -6.20992,5.16418 -9.25776,5.16418 -1.97832,0 -2.17174,-0.21241 -1.25201,-1.37427 z m 85.81326,-1.88475 c 0,-8.18086 -5.66007,-11.7166 -13.26323,-8.28529 -1.14541,0.51689 -1.73711,-0.27972 -2.87436,-3.86982 -0.78763,-2.48641 -2.39489,-5.46919 -3.57171,-6.62839 l -2.13964,-2.10767 -5.17822,2.89391 c -2.848,1.59165 -5.73344,2.89391 -6.41206,2.89391 -1.24505,0 -3.33691,-4.78919 -3.33691,-7.63967 0,-1.80129 -3.14018,-2.04892 -7.88586,-0.62181 -2.30576,0.69337 -3.1482,0.63723 -3.42328,-0.2281 -0.20068,-0.63127 -2.50428,-3.49955 -5.11911,-6.37396 -4.34824,-4.77993 -5.46619,-8.07396 -2.30905,-6.80368 1.38742,0.55827 1.78753,-3.56713 0.43121,-4.44606 -1.22953,-0.79677 -3.56178,-8.68705 -3.01189,-10.18956 0.94019,-2.56904 5.26694,-1.50643 9.49708,2.33242 2.22575,2.01987 4.85362,3.67249 5.83972,3.67249 1.71708,0 1.81181,-1.17962 0.44102,-5.49159 -0.60949,-1.9172 8.85748,1.9605 10.57499,4.33153 1.68742,2.32953 1.39856,2.69804 -3.03189,3.86776 -4.43327,1.17051 -16.88852,6.92583 -16.88852,7.80387 0,0.96048 5.66631,5.96013 6.78607,5.98767 0.60199,0.0155 1.09452,-0.79939 1.09452,-1.80934 0,-3.29133 4.21221,-2.33019 7.8387,1.78862 3.29836,3.74619 7.35867,5.97966 9.38694,5.16358 2.25454,-0.90717 1.10764,-2.36417 -3.98111,-5.05763 -2.82896,-1.49735 -5.39015,-3.39627 -5.69155,-4.21985 -0.99281,-2.71279 -0.57581,-4.12764 1.51027,-5.12425 1.72872,-0.82589 3.05328,-0.43677 8.27298,2.43028 4.94872,2.71819 6.32507,3.94037 6.7564,5.99949 0.99104,4.73118 5.30425,9.54557 14.07304,15.70835 4.77406,3.35525 9.55607,7.34503 10.62668,8.86614 l 1.94657,2.76572 -2.51679,2.82496 c -3.27932,3.68092 -4.44101,3.56741 -4.44101,-0.43403 z m 103.3234,3.02352 c 0,-0.81869 11.70404,-10.43403 14.63501,-12.02325 3.91356,-2.12199 5.96917,-1.89112 8.0676,0.90608 2.82969,3.77196 2.34315,4.56637 -2.78222,4.54268 -3.71563,-0.0176 -5.44674,0.55131 -9.02894,2.96495 -3.88456,2.61739 -10.89145,4.93953 -10.89145,3.60954 z m -37.59712,-10.25602 c -3.81546,-4.08466 -4.39541,-6.14894 -1.22416,-4.35708 2.72437,1.53938 5.72173,5.42479 5.40798,7.01027 -0.22483,1.13618 -1.25371,0.48371 -4.18382,-2.65319 z m 18.90872,-0.75392 c -0.7579,-6.70982 -4.60874,-14.15838 -9.55183,-18.47585 -2.28836,-1.99873 -4.39344,-3.38994 -4.67799,-3.09156 -0.28458,0.29834 1.98174,3.36189 5.03621,6.80787 5.2863,5.96384 5.44845,6.28097 3.36821,6.5884 -1.67076,0.24691 -2.957,-0.58866 -5.46165,-3.54805 -2.58613,-3.05563 -3.38912,-3.56256 -3.81214,-2.40666 -0.3253,0.88881 0.53076,2.87649 2.17807,5.05733 5.32619,7.05125 2.57669,5.76262 -5.82459,-2.72987 -8.00662,-8.09356 -14.72313,-13.89267 -20.75262,-17.9181 -2.47474,-1.65218 -2.55859,-1.65415 -1.97016,-0.0463 0.33802,0.9236 0.61458,1.83949 0.61458,2.03529 0,0.19586 2.85673,2.3827 6.34826,4.85974 3.49156,2.47704 6.97792,5.27843 7.74751,6.22527 1.59411,1.96131 2.75936,4.93494 1.93378,4.93494 -1.1964,0 -8.61359,-5.02298 -18.01962,-12.20309 -5.43006,-4.14504 -11.93206,-8.53669 -14.44886,-9.75916 -5.16004,-2.50639 -5.8834,-4.64072 -2.38694,-7.04291 1.204,-0.82716 2.18907,-2.15876 2.18907,-2.95914 0,-1.05241 0.26482,-1.17752 0.95674,-0.45203 0.68496,0.71819 0.6895,1.5267 0.0168,2.84616 -0.89312,1.74978 -0.67576,1.843 4.29699,1.843 6.14689,0 6.6319,-1.07837 3.00534,-6.6818 -1.22779,-1.89705 -2.0561,-3.63394 -1.84071,-3.85979 0.21538,-0.22584 1.81099,-0.13153 3.54576,0.20976 3.03642,0.59728 3.15414,0.76662 3.15414,4.53738 0,4.23704 1.9388,7.06672 3.62818,5.29532 1.2437,-1.30404 0.18617,-5.9988 -2.01079,-8.9275 -1.72692,-2.30196 -1.73008,-2.41243 -0.15046,-5.24859 2.41799,-4.34114 3.54915,-4.16728 4.9182,0.75577 l 1.2186,4.38201 1.57544,-2.52117 c 1.39414,-2.23093 1.46419,-3.22541 0.6086,-8.63919 -0.53177,-3.36494 -0.86865,-6.22102 -0.74864,-6.34687 0.12,-0.12581 2.28635,0.84435 4.81407,2.156 3.85455,2.00017 4.94679,2.21716 6.77192,1.34521 1.19687,-0.57179 2.55247,-2.07759 3.0125,-3.34621 1.0691,-2.94844 1.67723,-2.90062 5.69563,0.44779 3.63246,3.0268 3.9403,3.172 3.9403,1.85848 0,-0.4927 -1.35398,-2.18774 -3.00883,-3.76672 -2.66157,-2.5395 -2.90837,-3.15139 -2.1382,-5.30145 0.47883,-1.33681 2.45368,-4.13068 4.38852,-6.20858 l 3.51785,-3.77799 -0.92769,-5.26181 c -0.99171,-5.62535 -0.22646,-8.75801 2.13947,-8.75801 0.70545,0 1.28263,-0.39708 1.28263,-0.88235 0,-1.98936 -4.17583,-4.71071 -10.7521,-7.0071 -3.83677,-1.33978 -7.81401,-3.31468 -8.83831,-4.38869 l -1.86231,-1.95272 2.33601,-0.28324 c 1.28477,-0.15577 4.36267,0.79362 6.83973,2.10978 5.09094,2.70495 7.56934,2.41523 8.81893,-1.03096 0.76614,-2.11286 1.1751,-2.2428 6.25481,-1.98719 l 5.43506,0.27349 3.72931,7.34494 c 4.46605,8.79598 9.10463,23.07893 11.77777,36.26573 2.85321,14.07521 2.87743,35.98566 0.0513,46.33276 -2.50847,9.1837 -6.15913,16.42143 -10.82567,21.46262 -5.85757,6.3279 -6.50643,6.40387 -7.13541,0.83551 z m -19.29417,-21.23915 c -2.77849,-4.97125 -6.15684,-7.91263 -9.08811,-7.91263 -2.06103,0 -2.10787,0.11082 -0.87377,2.06575 1.37181,2.17325 11.3724,10.76614 11.93142,10.25194 0.17882,-0.16459 -0.70738,-2.14684 -1.96954,-4.40506 z m 32.72208,-4.01063 c 4.46444,-14.90174 4.36806,-21.76064 -0.36367,-25.87823 -1.68107,-1.46287 -1.00569,-2.81299 1.40718,-2.81299 1.56891,0 1.73448,-0.39074 1.2475,-2.94397 -1.4432,-7.56603 -6.35139,-13.47642 -5.26259,-6.33714 0.4553,2.98561 0.28076,3.85849 -0.86354,4.31889 -2.25966,0.90921 -3.86295,-1.20395 -4.90441,-6.46409 -0.96443,-4.87108 -2.9196,-8.78184 -3.88458,-7.77 -1.02344,1.0731 2.88347,20.81124 5.53314,27.95388 2.9012,7.8207 3.29133,12.22798 1.74967,19.7653 -0.98741,4.8276 -0.14206,9.12 1.79592,9.12 0.47494,0 2.07038,-4.02824 3.54538,-8.95165 z m -42.17539,-8.95831 c -1.06216,-1.11373 -9.47955,-1.62901 -9.47955,-0.58029 0,0.57532 0.68953,1.06063 1.53233,1.07853 0.84278,0.0176 2.51741,0.61148 3.72139,1.31907 1.87968,1.10473 2.36732,1.1032 3.45038,-0.0109 0.69371,-0.71344 1.04267,-1.52643 0.77545,-1.80661 z m 6.28163,-15.23413 c 0,-2.02465 -0.87819,-3.76697 -3.04249,-6.03633 -1.67338,-1.75458 -3.40547,-2.95494 -3.84914,-2.66743 -1.42391,0.92274 0.57162,7.32885 2.95432,9.48416 3.06849,2.77564 3.93731,2.60341 3.93731,-0.7804 z m 31.99622,-33.93966 c 0.58623,-0.99457 -1.93854,-3.54047 -3.5385,-3.56813 -1.78197,-0.0308 -3.30349,1.65234 -2.78193,3.07748 0.61109,1.66976 5.40602,2.042 6.32043,0.49065 z m -60.82819,83.02703 c -2.2961,-3.06068 -2.31529,-4.92583 -0.0507,-4.92583 1.56187,0 5.22808,4.65931 5.23758,6.65634 0.008,1.6556 -3.5329,0.47427 -5.18692,-1.73051 z m 126.02603,-8.13925 c -0.59954,-0.75747 -1.62301,-1.3772 -2.27439,-1.3772 -0.82736,0 -1.03795,-0.76734 -0.69869,-2.54592 0.3537,-1.8544 -0.008,-3.01526 -1.33532,-4.27384 -4.60909,-4.37357 -0.3595,-5.58907 6.38287,-1.82563 4.81989,2.69035 5.18483,1.59376 0.55239,-1.65983 -1.68557,-1.18384 -3.19253,-3.08347 -3.34881,-4.22134 -0.25327,-1.84402 -0.0147,-2.00107 2.18905,-1.44488 4.22794,1.06672 8.94966,3.95535 10.4872,6.4158 1.42473,2.27999 1.3992,2.42087 -0.78791,4.34927 -1.2432,1.09613 -2.89522,3.3357 -3.67119,4.97685 -1.09839,2.32309 -1.96382,2.98389 -3.90798,2.98389 -1.37345,0 -2.98769,-0.61973 -3.58722,-1.37717 z m -368.13936,-4.03238 c -5.5407,-9.20301 -6.99603,-22.68409 -3.29847,-30.55453 1.84125,-3.91917 1.96578,-5.06701 1.44439,-13.31272 -0.62669,-9.91118 0.7415,-33.95014 2.63163,-46.2372 2.17343,-14.12883 6.57221,-29.31922 10.34232,-35.71544 1.32931,-2.25525 1.9049,-4.80059 1.97582,-8.73737 0.0977,-5.42923 0.36242,-6.01253 11.68224,-25.75366 28.82292,-50.26551 46.41528,-68.62216 76.97028,-80.3142 6.37264,-2.43854 6.75188,-2.73679 6.47356,-5.09085 -0.50882,-4.30357 -2.62335,-9.59447 -7.14714,-17.88331 -6.76615,-12.39748 -8.38068,-19.03944 -6.13416,-25.23499 0.68174,-1.88018 0.48986,-3.18451 -0.8839,-6.00797 -4.43068,-9.10634 -5.62188,-26.11817 -3.53402,-50.46964 0.49789,-5.8071 0.90864,-10.90265 0.91275,-11.32346 0.005,-0.4208 0.50002,-0.5953 1.10202,-0.38776 0.602,0.20755 1.29156,2.20443 1.53235,4.43757 l 0.43779,4.06024 1.97017,-2.06577 c 1.49327,-1.56577 1.97014,-3.12746 1.97014,-6.45207 0,-4.43188 2.0263,-8.96492 3.5624,-7.96949 1.22832,0.796 0.98257,3.84558 -0.5623,6.978 -0.75789,1.53674 -1.11841,3.06555 -0.80112,3.39735 1.151,1.20366 4.74654,-4.56278 6.17615,-9.90514 1.62201,-6.06138 4.01999,-9.18112 5.83981,-7.59753 0.61239,0.53291 2.44378,3.6886 4.06975,7.01259 4.37602,8.94601 5.7531,7.75292 4.80532,-4.16328 -0.31658,-3.98052 -0.26995,-7.23729 0.10358,-7.23729 2.0934,0 6.69809,4.27208 8.26663,7.66945 2.24302,4.85835 2.30312,9.47755 0.36606,28.1372 -1.59188,15.33476 -1.28009,20.78411 1.45952,25.5077 3.57535,6.16454 4.52367,2.11271 2.1099,-9.01492 -0.75922,-3.5 -1.22408,-7.09335 -1.03304,-7.98525 0.34391,-1.60574 2.37311,4.77945 9.37744,29.50769 3.40077,12.00612 7.56089,22.59469 11.11544,28.29167 1.50729,2.41577 1.49807,2.62644 -0.28082,6.42685 -1.01157,2.16104 -4.06304,7.62744 -6.78105,12.14755 -4.81661,8.01014 -7.94116,16.32747 -7.34766,19.55891 0.19858,1.08103 1.18591,-0.04 3.03642,-3.44743 4.62516,-8.51657 8.10533,-12.88105 12.61496,-15.82048 4.0641,-2.64898 4.32048,-3.04473 4.32048,-6.66981 0,-2.11956 -1.77314,-9.44592 -3.94029,-16.28082 -3.72068,-11.73444 -4.99452,-19.98821 -3.08487,-19.98821 1.88612,0 3.50224,4.57599 4.33718,12.28077 0.84246,7.77384 1.8707,10.67222 3.78609,10.67222 0.85442,0 0.71142,-1.9893 -0.75896,-10.55838 -0.59707,-3.47953 -0.54606,-3.60013 0.97105,-2.2953 2.74964,2.36486 4.79416,8.66965 6.15577,18.98299 0.72162,5.46578 1.70117,11.13559 2.17677,12.5996 0.47559,1.464 0.86473,2.80675 0.86473,2.98389 0,0.17713 -1.34888,0.32205 -2.99749,0.32205 -4.51582,0 -7.84875,3.44673 -9.57658,9.90357 -3.25273,12.15522 0.082,12.71469 5.08476,0.85311 2.63329,-6.24331 4.56509,-6.75435 9.61764,-2.54419 l 3.24476,2.70376 -3.68654,1.97201 c -7.52184,4.0236 -16.30555,14.83001 -15.51321,19.08563 0.18701,1.00436 1.63161,-0.60521 4.16634,-4.64212 3.97216,-6.32614 7.42519,-8.96938 11.71725,-8.96938 2.08644,0 2.17241,0.1734 1.33449,2.69378 -0.92797,2.79111 -4.11334,5.56929 -6.38562,5.56929 -0.81837,0 -1.52547,1.28312 -1.89731,3.44293 -0.83119,4.82796 -1.90121,6.65636 -3.89553,6.65636 -1.45528,0 -1.72043,0.63675 -1.72043,4.13153 0,3.82312 -0.16769,4.13155 -2.24662,4.13155 -2.8295,0 -5.63398,1.53597 -5.63398,3.08566 0,1.68584 3.14049,4.42777 9.06119,7.91124 4.41648,2.59847 5.07746,2.77647 4.80522,1.29418 -0.17359,-0.94533 -1.39445,-2.26087 -2.71294,-2.92347 -3.13166,-1.57384 -3.05477,-2.94079 0.16538,-2.94079 1.71724,0 2.68356,0.53004 2.92916,1.60671 0.34466,1.51099 0.40565,1.51263 1.02363,0.0268 0.43084,-1.03572 0.005,-2.45087 -1.24076,-4.10955 -1.38002,-1.83958 -1.59071,-2.63725 -0.77213,-2.92332 1.45785,-0.50955 10.37933,9.92472 10.38142,12.14171 0.002,1.51223 -0.48403,1.62283 -4.54989,1.03647 l -4.55148,-0.65635 2.74509,2.87833 c 1.50982,1.58308 2.99351,3.69887 3.29706,4.70175 0.67889,2.24282 0.12714,2.27054 9.62181,-0.48328 4.33095,-1.25616 9.29903,-2.2839 11.04022,-2.2839 2.85191,0 3.46504,0.47784 6.18462,4.82012 3.08014,4.91792 4.56339,8.38484 5.48512,12.82075 0.41315,1.98834 1.26512,2.70294 4.21573,3.53602 5.13278,1.4492 11.15754,4.77635 20.22978,11.17187 9.72727,6.85729 15.40736,9.63127 21.3027,10.4036 4.56766,0.5984 4.66193,0.67423 6.95978,5.59879 2.66198,5.70495 3.64837,16.9032 2.56082,29.0723 l -0.6224,6.96433 -5.68298,6.01771 c -6.63861,7.02965 -12.90838,11.67213 -22.63241,16.75829 -7.46127,3.90263 -37.16824,16.78228 -38.70837,16.78228 -0.50489,0 -1.4085,-0.61974 -2.00804,-1.37719 -1.69338,-2.13943 -4.51719,-1.67329 -13.90489,2.29529 -4.77797,2.01987 -9.68489,3.67248 -10.9043,3.67248 -3.12066,0 -3.95574,3.18168 -1.54214,5.87554 2.37504,2.65079 2.38876,5.14189 0.0284,5.14189 -0.99306,0 -5.55505,0.90308 -10.13775,2.00686 -6.8985,1.66154 -8.95087,1.8337 -11.92798,1.0005 -3.28763,-0.92012 -3.84823,-0.8045 -6.54099,1.34906 -3.84671,3.07642 -5.06375,5.44378 -3.6905,7.17876 1.62883,2.05785 3.40271,1.58267 7.07382,-1.89492 1.86574,-1.76738 3.94284,-3.21344 4.61581,-3.21344 1.68281,0 3.49137,8.35975 2.72963,12.61722 -0.33325,1.86255 -1.18822,4.56717 -1.89995,6.01031 -1.22199,2.47774 -1.40606,2.54694 -3.30494,1.24235 -4.18523,-2.87534 -11.93426,-4.52735 -18.41134,-3.92504 -3.39508,0.31569 -7.25644,0.83039 -8.58082,1.14375 -3.45277,0.81697 -3.02111,-0.69269 1.5765,-5.51344 3.42991,-3.59635 3.85215,-4.43706 3.03387,-6.04026 -1.12759,-2.20915 -4.82479,-2.46443 -9.02731,-0.62329 -1.55559,0.68151 -4.8394,3.54631 -7.29735,6.36623 -3.33133,3.82193 -4.72175,4.86207 -5.46192,4.08598 -1.61407,-1.6924 -1.14369,-5.12933 1.19611,-8.73974 1.20398,-1.85781 2.18904,-3.67954 2.18904,-4.04828 0,-0.36875 -2.49795,-0.42585 -5.55105,-0.1269 l -5.55103,0.54351 -1.45393,-3.81005 c -2.42799,-6.3626 -1.99312,-8.54697 2.26746,-11.38977 3.20518,-2.13858 3.04176,-2.93528 -0.94511,-4.60792 -1.84418,-0.77371 -4.60237,-2.89872 -6.12934,-4.72225 -2.24374,-2.67953 -2.77627,-4.11296 -2.77627,-7.47323 0,-4.13735 0.0148,-4.15636 2.84431,-3.87009 2.17709,0.22012 3.3412,1.09534 4.96262,3.73065 l 2.11832,3.44297 6.85829,0 c 7.72323,0 8.13887,-0.47868 4.8648,-5.60248 -1.77117,-2.77183 -8.49244,-8.31479 -11.25166,-9.27917 -1.65268,-0.57763 0.36603,-5.59449 2.80679,-6.97544 1.95708,-1.10729 1.84247,-1.15548 -1.49187,-0.62732 -3.40504,0.53937 -3.65038,0.42406 -4.28571,-2.014 -0.37066,-1.42235 -0.73432,-6.94681 -0.80812,-12.27656 -0.11558,-8.34077 -0.41273,-10.163 -2.13398,-13.0832 l -1.99976,-3.39273 5.06967,0 5.06964,0 -3.68479,-3.93677 c -2.02666,-2.16521 -3.68481,-4.23097 -3.68481,-4.59058 0,-0.3596 1.77311,-0.65384 3.94029,-0.65384 3.93457,0 3.94031,-0.004 3.94031,-3.27944 0,-1.88261 0.9783,-5.02987 2.29681,-7.38892 1.73935,-3.11202 2.17777,-4.87873 1.80631,-7.27892 -0.44692,-2.88758 -0.30076,-3.16945 1.64347,-3.16945 1.8035,0 2.134,-0.44161 2.134,-2.85137 0,-1.70194 -0.88242,-3.95095 -2.18906,-5.57916 -3.24382,-4.04213 -2.83662,-5.0424 2.26178,-5.55606 4.06767,-0.40982 4.93293,-0.94947 10.05148,-6.26872 4.952,-5.14618 6.00366,-5.82554 9.08018,-5.86567 3.21079,-0.0419 3.43963,-0.21287 2.96359,-2.21274 -0.43062,-1.80904 -0.24287,-2.07847 1.13569,-1.62994 5.06646,1.64846 20.87208,5.18199 21.69708,4.85066 1.4853,-0.59658 -4.56047,-3.05991 -10.17298,-4.14497 -6.46004,-1.24892 -10.17382,-3.29822 -11.22358,-6.19336 -1.28134,-3.53374 -1.04349,-4.20769 1.06696,-3.02341 1.27886,0.71766 4.19498,0.86874 8.8728,0.45969 5.85781,-0.51224 7.22825,-0.36218 8.60249,0.94185 2.24268,2.1281 2.05306,2.93037 -0.77331,3.27135 -2.26249,0.27295 -2.03772,0.58 3.72142,5.08334 6.41526,5.01639 14.92378,9.87384 19.0807,10.89302 l 2.4439,0.5992 -1.75958,-4.85554 c -2.80444,-7.73888 -5.48917,-10.12715 -23.11734,-20.56457 -4.56926,-2.70539 -4.95403,-4.23769 -0.58799,-2.34143 1.47565,0.64089 2.89646,0.94148 3.15732,0.66795 0.86707,-0.90914 -2.07245,-5.68786 -4.78775,-7.78339 -4.1763,-3.22302 -5.37456,-2.76245 -5.37456,2.06578 0,2.59229 -0.38992,4.13153 -1.0466,4.13153 -0.57564,0 -2.07862,1.03674 -3.33998,2.30386 -2.16427,2.1741 -2.56054,2.25071 -7.03758,1.36045 -4.48485,-0.89183 -8.4463,-3.4638 -6.52607,-4.23709 5.61912,-2.26286 8.49388,-6.94782 4.87256,-7.94079 -2.30485,-0.63198 -4.99979,1.52446 -6.98641,5.59037 -1.32625,2.71436 -2.5668,3.71909 -6.2821,5.08798 -6.91637,2.54829 -13.44072,9.88111 -18.49618,20.78818 -2.33122,5.02962 -3.64957,8.87066 -3.11404,9.07291 0.51078,0.19299 1.65041,-0.63341 2.53254,-1.83625 0.88211,-1.20283 1.61261,-1.72736 1.62331,-1.16557 0.0572,2.99634 -14.07352,17.18463 -14.76011,14.82034 -0.18388,-0.63351 -0.90965,-1.84525 -1.6126,-2.69277 -1.76079,-2.12285 -0.94715,-4.21615 4.64963,-11.96216 4.58392,-6.34423 7.42908,-12.90157 6.17046,-14.22128 -0.94168,-0.98738 -3.26628,1.9187 -8.00006,10.0011 -4.64853,7.93691 -6.38429,9.47366 -7.16494,6.3435 -0.26515,-1.06312 -0.82656,-1.93296 -1.24758,-1.93296 -1.47363,0 -15.66709,31.91361 -15.66709,35.22697 0,1.82846 4.73185,-3.78214 9.71375,-11.51775 7.58115,-11.77153 9.47775,-12.4984 4.43516,-1.69978 -2.1563,4.61765 -5.11519,8.91254 -9.05083,13.13745 -5.83397,6.26278 -6.22218,8.1874 -1.25177,6.20591 3.49962,-1.39511 4.49321,-1.17279 2.91752,0.65281 -2.76337,3.2017 -3.58192,7.35657 -4.11466,20.88552 -0.43065,10.93716 -0.88023,14.4332 -2.18417,16.98522 l -1.6419,3.21341 -0.8079,-3.21341 c -0.44435,-1.76738 -0.67208,-8.27467 -0.50608,-14.4606 0.31224,-11.63464 0.0464,-12.4726 -3.17388,-10.00363 -1.7295,1.32605 -2.91428,7.52778 -3.02753,15.84781 -0.0437,3.20328 -0.61203,5.42693 -1.78802,6.99454 -1.53189,2.04196 -1.62808,2.90026 -0.8628,7.69829 0.82931,5.19959 0.39404,13.56231 -0.89991,17.2893 -0.59444,1.71218 -0.71629,1.69045 -2.80543,-0.50007 -1.83162,-1.92054 -2.26794,-3.45341 -2.70411,-9.50067 -0.31703,-4.39519 -1.01115,-7.7255 -1.7777,-8.52926 -1.47123,-1.54262 -1.34996,-1.9258 -4.60617,14.55412 -2.42422,12.26909 -2.6354,17.6551 -0.95811,24.43507 1.13124,4.57279 1.1073,4.75597 -0.65671,5.02022 -1.40767,0.21085 -1.93203,1.10506 -2.26864,3.86891 -0.36259,2.977 -0.62026,3.36237 -1.49952,2.24269 -0.58393,-0.74358 -1.63866,-3.67456 -2.34381,-6.51326 -1.71237,-6.89331 -3.04846,-9.45028 -4.26919,-8.1703 -0.66282,0.69498 -0.68313,2.50802 -0.0681,6.06634 0.64008,3.70267 0.60982,5.07513 -0.11176,5.07513 -1.66777,0 -3.09,-2.08227 -3.1041,-4.54468 -0.0102,-1.84869 -0.19206,-2.05148 -0.86222,-0.96403 -1.3425,2.17822 -1.03571,5.05457 1.29942,12.18232 l 2.17502,6.63913 -3.45946,-4.13153 c -1.9027,-2.27234 -4.81268,-6.79136 -6.46658,-10.04226 l -3.0071,-5.91072 -1.037,3.61541 c -0.57034,1.98851 -1.25168,11.11214 -1.51409,20.27479 -0.46708,16.3107 -0.43805,16.68125 1.38824,17.70608 1.35238,0.75889 1.86533,1.92156 1.86533,4.22787 0,4.14837 -1.22124,4.02495 -3.88058,-0.39219 z m 147.3246,-53.12055 c 0.20467,-1.51024 -0.16033,-2.06575 -1.35723,-2.06575 -1.92264,0 -3.73849,1.67962 -3.73849,3.45802 0,0.82694 0.82073,1.15553 2.40796,0.96403 1.72411,-0.20799 2.48741,-0.87719 2.68776,-2.3563 z m -12.45199,-2.98387 c 6.27868,-4.79956 7.28667,-5.21441 8.80398,-3.62349 0.50725,0.53191 2.94753,1.01545 5.42284,1.07458 3.44457,0.0822 5.72557,-0.55499 9.72178,-2.71601 5.6348,-3.04714 17.47999,-12.13032 17.5277,-13.44068 0.0168,-0.44126 -2.0842,-0.61852 -4.66724,-0.39392 -3.71044,0.32264 -6.04093,1.3103 -11.10024,4.7043 -7.121,4.77706 -8.3698,5.20321 -6.91916,2.3611 1.44473,-2.83052 0.0688,-3.55493 -4.86624,-2.5619 -2.40797,0.48451 -5.3089,0.64208 -6.44656,0.35017 -1.99515,-0.51197 -2.01343,-0.59449 -0.51612,-2.32928 2.34777,-2.72018 1.00589,-3.07439 -3.58332,-0.94584 -5.38002,2.49534 -6.16673,2.41676 -6.12534,-0.61188 0.0317,-2.31935 -0.28618,-2.56218 -3.90578,-2.98389 l -3.94028,-0.45906 4.87686,-2.10517 c 5.31775,-2.29549 13.5039,-4.75253 15.89168,-4.76984 0.82766,-0.007 1.35305,0.50558 1.16752,1.13676 -0.18556,0.63122 -0.5729,2.9105 -0.86085,5.06508 l -0.52351,3.91741 3.53279,-2.68336 c 3.41916,-2.59703 12.42421,-6.39071 19.7668,-8.32747 2.83693,-0.74826 3.55824,-1.34999 3.50249,-2.92179 -0.0386,-1.08869 0.42233,-2.15898 1.02434,-2.37839 1.52794,-0.55697 1.35351,3.44932 -0.24674,5.66778 -1.1722,1.62496 -1.79888,5.1037 -0.91942,5.1037 0.20152,0 0.97741,0.24592 1.72445,0.5465 0.85828,0.34534 2.32635,-0.5649 3.9884,-2.47294 3.06,-3.51287 4.16612,-3.07556 2.77843,1.09846 -1.69371,5.0944 -1.32479,6.33671 1.88186,6.33671 1.57231,0 4.42903,-0.88672 6.34826,-1.97045 7.32093,-4.13387 8.57487,-4.44847 11.60279,-2.91084 2.71366,1.37805 2.83439,1.34671 4.94483,-1.28311 1.18978,-1.48261 5.04293,-4.0364 8.56252,-5.67513 3.51961,-1.6387 8.30204,-3.86261 10.62765,-4.94204 4.38313,-2.03447 10.37363,-8.10677 8.60676,-8.72432 -0.54613,-0.19081 -2.08134,0.2342 -3.41156,0.94468 -1.33022,0.71044 -6.5559,3.51705 -11.61262,6.23688 -7.85591,4.22547 -10.05046,4.99832 -15.07835,5.30997 -4.195,0.26007 -7.14672,-0.11127 -10.28161,-1.2932 l -4.3973,-1.65797 -2.46282,2.47404 c -2.47326,2.48455 -4.55605,3.2206 -4.55605,1.61012 0,-0.47518 0.39193,-1.11792 0.87093,-1.42833 0.479,-0.31041 1.25039,-1.30784 1.7142,-2.21654 0.71789,-1.40648 -0.0299,-2.18388 -5.02826,-5.22806 -3.22937,-1.96672 -7.35417,-4.97062 -9.16625,-6.67535 l -3.29467,-3.09947 -3.42636,2.37751 c -5.05274,3.50602 -13.26554,6.11675 -19.24202,6.11675 -2.87633,0 -5.4337,-0.34614 -5.68307,-0.76919 -0.50208,-0.85183 7.02864,-2.89921 10.70539,-2.91046 3.37052,-0.011 5.13986,-4.05407 2.72317,-6.22374 -2.78758,-2.50265 -2.14951,-4.62368 1.58815,-5.27917 7.99253,-1.40166 9.53845,-2.97475 6.60394,-6.72002 l -1.56912,-2.00261 -2.54415,2.31234 c -2.96976,2.69914 -3.6454,2.8322 -4.36713,0.86007 -0.83697,-2.28696 -0.62608,-3.3725 0.56301,-2.89813 0.602,0.24014 1.98111,0.091 3.06468,-0.33127 1.44894,-0.56473 1.97015,-1.50436 1.97015,-3.55181 0,-3.75134 -1.97446,-3.66221 -9.51512,0.42947 -7.22283,3.91923 -8.7891,4.08557 -8.20308,0.87123 0.29463,-1.61606 -0.19646,-3.03809 -1.58425,-4.58696 -2.49462,-2.78428 -1.95758,-3.48429 1.65897,-2.16235 4.23896,1.54943 5.25428,0.66098 5.55634,-4.86195 0.25032,-4.57667 0.41374,-4.88572 2.73081,-5.16424 1.3555,-0.16282 3.45053,0.38116 4.65562,1.20909 1.76425,1.21207 1.98819,1.76161 1.14961,2.82106 -0.5728,0.72367 -2.1331,1.31575 -3.4674,1.31575 -2.81783,0 -4.15364,2.45089 -2.36054,4.331 0.83806,0.87874 2.27631,1.06898 4.83649,0.63973 3.25522,-0.54579 3.62791,-0.86784 3.4952,-3.02035 -0.33279,-5.39788 0.34815,-7.61323 4.11203,-13.37775 2.16716,-3.31912 3.94029,-6.23034 3.94029,-6.46939 0,-1.09545 -9.96511,-5.52071 -22.55281,-10.01515 -7.58201,-2.70716 -15.27525,-5.67353 -17.0961,-6.59197 l -3.31057,-1.66987 -2.65082,2.77949 c -1.9206,2.01381 -2.81948,4.02452 -3.26299,7.29898 -0.5646,4.16844 -0.81569,4.54279 -3.23262,4.81967 -3.69441,0.42319 -4.15664,1.24482 -2.57298,4.57342 1.77796,3.73692 1.21371,5.54422 -4.16441,13.33846 -4.77063,6.91382 -5.0019,9.40434 -0.78307,8.43275 1.39932,-0.32225 2.78221,-0.18221 3.07306,0.31124 0.29082,0.49345 -0.63823,1.16592 -2.06459,1.49439 -3.26705,0.75239 -7.05375,3.82381 -7.05375,5.72134 0,1.26449 1.23229,1.37104 9.85076,0.85182 12.50657,-0.75346 15.16631,0.58142 4.11852,2.06703 -8.21462,1.1046 -15.47299,3.55406 -13.18327,4.44891 0.67308,0.26302 3.9742,-0.0658 7.33582,-0.73096 l 6.11206,-1.20924 1.7123,2.46472 c 0.94179,1.35557 2.36901,2.48339 3.17164,2.5062 2.12835,0.0606 -6.05899,4.45851 -8.39146,4.50763 -2.35763,0.0496 -2.46775,-0.61456 -0.4831,-2.91401 1.44338,-1.67234 1.29558,-1.7149 -5.03483,-1.44948 -6.00421,0.25171 -6.54406,0.43739 -6.80166,2.33918 -0.25515,1.88371 0.0729,2.06578 3.72138,2.06578 2.20067,0 4.00122,0.23412 4.00122,0.52031 0,0.28619 -0.93935,1.8355 -2.08742,3.44296 -1.1481,1.60744 -2.35674,3.85223 -2.68589,4.9884 -0.50112,1.72978 -0.26842,2.06429 1.4307,2.05678 1.11605,-0.004 4.13694,-1.03781 6.71313,-2.2953 4.5874,-2.23919 10.96162,-3.04988 11.86951,-1.5096 0.25181,0.42721 -1.47607,1.7265 -3.83974,2.88731 -2.36365,1.1608 -5.56329,3.47984 -7.1103,5.1534 -2.36495,2.55842 -2.63447,3.26812 -1.69292,4.45766 1.58534,2.00293 11.41287,2.02026 11.41287,0.0198 0,-1.0397 -0.61291,-1.25787 -2.40796,-0.85717 l -2.40797,0.53752 2.54188,-2.27318 c 2.38895,-2.13641 12.13842,-6.11179 14.98896,-6.11179 0.71228,0 1.29504,0.80578 1.29504,1.79062 0,0.98484 0.59466,2.13955 1.3215,2.56605 1.08278,0.63536 0.76932,1.3366 -1.73543,3.8821 -2.79502,2.84056 -3.23874,3.00467 -5.17943,1.91563 -1.79426,-1.00687 -2.74456,-0.94195 -6.14517,0.41976 -3.9089,1.56528 -4.02268,1.72134 -4.02268,5.51767 0,3.20523 -0.629,4.70499 -3.50248,8.35106 -1.92636,2.4443 -3.50249,4.76163 -3.50249,5.14961 0,1.39555 5.78501,0.66746 8.98492,-1.13081 3.91534,-2.20036 4.14942,-2.22626 4.14942,-0.45908 0,1.61891 2.83707,1.8152 5.4053,0.37402 4.97367,-2.79101 4.11303,5.60808 -1.19313,11.64396 l -3.55958,4.04913 3.06256,0 c 2.29061,0 4.57625,-1.15711 9.06789,-4.5906 z m 17.7111,-31.50475 c 3.12089,-3.48329 2.45567,-4.30189 -3.4958,-4.30189 -6.66911,0 -6.09454,-0.82808 1.66756,-2.40334 7.37502,-1.49671 16.86645,-1.64655 16.86645,-0.26631 0,1.71642 -3.32062,5.55723 -3.92218,4.53666 -0.95538,-1.62089 -3.36631,-1.02511 -7.37378,1.82218 -4.59992,3.26821 -6.38307,3.56017 -3.74225,0.6127 z m -25.44925,-15.27604 c 1.9066,-1.66749 8.85921,-3.71575 12.61276,-3.71575 1.45003,0 1.70521,0.4111 1.28229,2.06577 -0.29038,1.13616 -0.53337,2.37563 -0.53994,2.75435 -0.007,0.37872 -3.45971,0.67486 -7.67364,0.65804 -7.6254,-0.0303 -7.65232,-0.0388 -5.68147,-1.76241 z m 0.32225,-16.4765 c -0.81688,-0.54258 0.0218,-0.92917 2.62685,-1.21086 4.2639,-0.461 6.25124,-0.024 5.52143,1.21415 -0.61832,1.04905 -6.5676,1.04663 -8.14828,-0.004 z m -8.43181,-21.1686 c -5.97829,-0.53917 -6.06463,-0.58258 -3.50249,-1.76157 1.8885,-0.86902 4.71362,-1.03691 10.05088,-0.59732 9.85177,0.81139 12.75068,1.43822 11.25357,2.43336 -1.25721,0.83566 -8.02451,0.80737 -17.80196,-0.0745 z m 29.42075,-4.98025 c -0.87754,-1.10869 -0.75317,-1.54081 0.6741,-2.34173 0.96262,-0.54018 2.59159,-0.98214 3.61993,-0.98214 1.43809,0 1.80513,0.47686 1.58991,2.06577 -0.3382,2.49674 -4.24274,3.33158 -5.88394,1.2581 z m -15.7864,-1.57702 c -1.16975,-0.4901 -4.80169,-0.79475 -8.07093,-0.67693 -3.26924,0.11788 -6.21964,-0.0747 -6.5564,-0.42788 -0.33679,-0.35312 0.63543,-0.64204 2.16046,-0.64204 3.70729,0 3.78985,-2.93872 0.14605,-5.19568 -1.44477,-0.89489 -2.62687,-2.19648 -2.62687,-2.89244 0,-1.39337 2.51333,-1.19251 17.02443,1.36051 4.3067,0.75773 8.94616,1.14369 10.30992,0.85771 2.24546,-0.47092 2.39299,-0.35037 1.56249,1.27674 -2.03114,3.97943 -5.76715,4.53961 -12.94276,1.94067 -2.55185,-0.92427 -4.8413,-1.30413 -5.11022,-0.84794 -0.91779,1.55711 1.62864,3.50043 4.58673,3.50043 2.04512,0 2.95746,0.42485 2.95746,1.37717 0,1.56812 -0.46154,1.61771 -3.44024,0.36968 z m -119.31775,87.08114 c 0.25322,-4.13766 0.15236,-4.36105 -1.97014,-4.36105 -2.1048,0 -2.23705,0.27516 -2.23705,4.65446 0,4.30169 0.14941,4.63221 1.97016,4.36107 1.68127,-0.25037 2.0093,-0.93288 2.23703,-4.65448 z m 8.92716,-2.01157 c 0,-3.25246 -0.39405,-6.16895 -0.87563,-6.48103 -0.55215,-0.35781 -0.87561,1.82671 -0.87561,5.9136 0,3.70862 0.37457,6.48102 0.87561,6.48102 0.49312,0 0.87563,-2.58328 0.87563,-5.91359 z m 1.68768,-13.94977 c 3.02461,-4.03177 2.16645,-15.02517 -1.17285,-15.02517 -1.15179,0 -4.18215,6.34057 -5.33443,11.16145 -0.7267,3.04035 0.83993,6.28283 3.0356,6.28283 0.91128,0 2.47353,-1.08861 3.47168,-2.41911 z m 140.9732,-1.88519 2.12627,-2.5816 -2.32577,-0.28869 c -2.97921,-0.36981 -6.61626,1.51285 -8.38422,4.3399 l -1.38518,2.21494 3.92132,-0.55146 c 2.80545,-0.39458 4.52634,-1.28612 6.04758,-3.13309 z m -147.3277,-19.3544 c 1.48513,-4.47092 1.45786,-7.07706 -0.088,-8.42234 -0.99564,-0.86641 -1.42845,-0.74482 -2.11133,0.59308 -1.57609,3.08782 -2.08818,8.26748 -1.02363,10.35318 1.22281,2.39573 1.71747,2.00833 3.22298,-2.52392 z m 19.28466,0.32417 c 2.34999,-2.1214 2.45605,-2.57035 2.43974,-10.32885 -0.0126,-6.38783 -0.4276,-9.0519 -1.94944,-12.53971 -1.06279,-2.43578 -2.28728,-4.19869 -2.72102,-3.91762 -1.59581,1.03414 -2.75528,8.96746 -2.75528,18.85216 0,11.26772 0.46802,12.01247 4.986,7.93402 z m 179.09834,-2.96429 c 9.32242,-4.87858 16.8563,-9.78534 20.40619,-13.29046 2.64539,-2.61204 2.65643,-2.66428 2.05885,-9.7506 -2.1452,-25.43853 -20.71958,-39.6826 -51.7832,-39.71073 -7.00255,-0.007 -7.6617,0.14629 -7.6617,1.77512 0,2.50359 -0.69737,2.72095 -5.92781,1.84764 -3.5999,-0.60106 -21.17807,-8.03987 -22.87357,-9.67976 -0.18912,-0.18287 0.16264,-0.97208 0.78149,-1.75395 0.61886,-0.78185 0.97052,-1.554 0.7815,-1.7159 -1.33708,-1.14519 -14.32212,-6.13452 -17.23778,-6.6234 -4.48021,-0.75119 -8.16049,0.1137 -7.55258,1.77472 0.24572,0.6714 -0.16222,1.75068 -0.90652,2.39837 -0.74429,0.64772 -1.35307,1.64347 -1.35286,2.21286 4.9e-4,1.15028 21.17544,10.56537 29.21923,12.99186 2.82703,0.85281 7.45689,1.57343 10.28857,1.60138 4.39665,0.0433 5.14852,0.2974 5.14852,1.73904 0,1.20472 0.65011,1.68816 2.27019,1.68816 2.22519,0 2.19323,0.0898 -1.61269,4.52832 -9.9279,11.57812 -8.80793,28.32481 2.78203,41.59873 7.83322,8.97135 20.72751,14.11892 32.02313,12.78403 1.92638,-0.22768 6.94341,-2.21461 11.14901,-4.41543 z m -15.41786,-12.69289 c -10.6076,-3.96457 -17.46354,-20.59744 -12.31175,-29.86898 3.90282,-7.02384 16.44043,-10.48137 23.77678,-6.55701 6.46322,3.45734 9.40082,10.18602 8.8565,20.28634 -0.42064,7.80572 -3.41665,13.10013 -8.88669,15.70415 -4.32489,2.05884 -6.83556,2.15447 -11.43484,0.4355 z m 4.20632,-28.55562 c 1.94105,-2.03526 1.71821,-3.05684 -0.89388,-4.09817 -2.97007,-1.18402 -6.8225,0.67896 -7.20397,3.48377 -0.24984,1.8367 0.0954,2.05715 3.22103,2.05715 2.01508,0 4.0848,-0.61228 4.87682,-1.44275 z m -41.47192,35.38084 c 0.97121,-0.545 1.69365,-1.91571 1.69365,-3.21341 0,-2.00822 -0.37457,-2.26299 -3.32736,-2.26299 -3.80804,0 -5.42885,1.28831 -5.42885,4.31517 0,1.74429 0.46704,2.11168 2.68442,2.11168 1.47646,0 3.44659,-0.4277 4.37814,-0.95045 z m -138.00555,-3.85679 c 1.13668,-2.83459 0.53687,-6.24626 -1.08783,-6.18762 -0.82404,0.0297 -3.69058,6.10304 -3.69058,7.81916 0,2.65495 3.54487,1.44458 4.77841,-1.63154 z m 20.36492,-11.63152 c 1.46508,-2.27954 2.00094,-4.42923 2.00094,-8.02718 0,-4.8408 -0.0389,-4.91388 -2.61019,-4.91388 -2.14128,0 -2.7009,0.45356 -3.11521,2.52482 -0.27776,1.38867 -0.89123,4.31921 -1.36325,6.51232 -1.64393,7.63813 1.25705,9.86412 5.08771,3.90392 z m -16.84742,-0.0419 c 1.91815,-3.88933 1.77573,-8.30868 -0.2678,-8.30868 -1.99314,0 -4.09115,7.97668 -2.59513,9.86674 1.24614,1.57436 1.34446,1.52087 2.86293,-1.55806 z m 0.24139,-22.07039 c 3.68886,-2.35831 3.91498,-5.51877 0.39481,-5.51877 -1.98109,0 -2.65254,0.58452 -3.50249,3.04905 -1.73688,5.03641 -1.36697,5.3304 3.10768,2.46972 z m 13.35324,-9.57653 c 0,-2.72157 -0.54274,-5.53835 -1.26293,-6.55466 -1.24295,-1.75397 -1.29372,-1.75036 -3.20724,0.22902 -1.38687,1.4346 -2.05719,3.43889 -2.33813,6.99096 -0.35083,4.43612 -0.16811,5.14679 1.67489,6.50967 1.96501,1.45322 2.14556,1.43134 3.60106,-0.43631 1.02235,-1.31185 1.53235,-3.55462 1.53235,-6.73868 z m 6.73712,-1.06616 c 0.43419,-1.36757 -3.18546,-6.03375 -4.18035,-5.38901 -1.16328,0.75384 -0.98999,4.44354 0.27076,5.7655 1.23682,1.29682 3.44587,1.08409 3.90959,-0.37649 z m 128.98428,-17.37001 c 0,-3.1149 -5.22779,-6.40383 -6.56716,-4.13153 -0.29763,0.50497 0.0102,0.91812 0.68341,0.91812 0.67351,0 1.67339,1.03288 2.22194,2.29529 1.08487,2.4966 3.66181,3.14271 3.66181,0.91812 z m 6.01182,-3.57636 c -1.099,-2.52909 -6.57741,-6.69498 -7.51354,-5.71342 -1.14649,1.20216 1.59294,5.16375 4.74838,6.8668 1.82629,0.98565 3.43378,1.67759 3.5722,1.53761 0.13848,-0.13992 -0.22475,-1.35093 -0.80704,-2.69099 z M 199.24997,592.0219 c 4.33552,-2.33095 10.231,-9.66467 10.231,-12.72685 0,-1.2574 -9.41521,5.81447 -12.03545,9.03996 -3.26898,4.02406 -2.34272,5.91658 1.80445,3.68689 z m 36.23654,-16.63035 c 10.6386,-9.65533 17.53248,-17.55726 15.67891,-17.9715 -2.52773,-0.56493 -10.72399,4.79995 -15.89936,10.40695 -4.89628,5.30464 -12.68427,18.2122 -9.92262,16.44548 0.66668,-0.42652 5.23107,-4.42293 10.14307,-8.88093 z m -12.02364,-8.96682 c 1.24712,0 4.12469,-7.02799 3.25215,-7.94288 -1.33439,-1.39916 -9.89479,5.03159 -11.08468,8.32705 -1.06111,2.93891 -0.31974,3.25059 3.22474,1.35581 1.79018,-0.95697 3.8637,-1.73998 4.60779,-1.73998 z m 63.84211,-61.85644 c 1.50326,-3.97563 2.73321,-7.59073 2.73321,-8.03355 0,-1.79601 -3.5843,-0.69911 -4.31679,1.32105 -0.42403,1.16944 -1.99041,4.14238 -3.48083,6.60659 -2.67483,4.42249 -3.24483,7.09946 -2.14914,10.09337 0.94386,2.57903 4.12975,-1.832 7.21355,-9.98746 z m -6.93462,-6.01385 c 0.4957,-0.97116 1.33324,-3.87769 1.8612,-6.45897 0.91858,-4.49111 0.86447,-4.77194 -1.25651,-6.52128 -1.21904,-1.00543 -2.45174,-2.6054 -2.73934,-3.55553 -0.64002,-2.11436 -3.05525,-3.21168 -4.26868,-1.93935 -0.60655,0.63598 -0.27892,1.62111 1.02204,3.07314 2.49575,2.78551 2.41799,4.15893 -0.29671,5.24113 -3.30872,1.31903 -3.52323,3.28179 -0.77767,7.11585 3.80543,5.31411 5.008,5.88133 6.45567,3.04501 z m -16.46694,-40.0257 c -0.6213,-5.59621 -3.63639,-6.85083 -3.63639,-1.51317 0,3.92056 0.58158,4.93976 2.58419,4.52879 0.94936,-0.19477 1.26497,-1.09936 1.0522,-3.01562 z m 7.74672,-41.75737 c 0,-4.09653 -0.31271,-5.50873 -1.21976,-5.50873 -2.49479,0 -3.08273,5.73882 -0.91967,8.97692 0.74972,1.12229 1.53776,2.04051 1.75125,2.04051 0.21351,0 0.38818,-2.47893 0.38818,-5.5087 z M 487.63691,745.764 c -0.32107,-0.33663 -0.58376,-1.98924 -0.58376,-3.67247 0,-3.4385 2.1677,-4.32134 3.00567,-1.22416 0.27326,1.00993 0.72038,2.66256 0.99365,3.67249 0.37197,1.3749 0.0787,1.83624 -1.16751,1.83624 -0.91538,0 -1.92702,-0.27545 -2.24805,-0.6121 z m 8.79008,-0.70772 c -1.5611,-1.63686 -2.08503,-6.94326 -0.68552,-6.94326 0.96402,0 2.97632,6.00022 2.50721,7.4759 -0.21023,0.66126 -0.86589,0.46957 -1.82169,-0.53264 z M 368.86787,741.5718 c -0.0126,-0.87498 1.3361,-4.16342 2.99812,-7.30763 2.29135,-4.33477 3.16084,-5.33684 3.5969,-4.14528 0.9352,2.55532 -0.34303,6.02081 -3.55776,9.64571 -2.21667,2.49951 -3.01983,2.9774 -3.03726,1.8072 z m -26.93803,-6.758 c 0.4811,-2.63893 -0.47075,-2.68096 -6.12629,-0.27057 -2.53448,1.0802 -2.95729,1.02673 -4.02859,-0.50945 -1.05524,-1.51317 -2.01552,-1.65251 -8.11359,-1.17734 -12.09847,0.94271 -12.62217,-0.8839 -1.58654,-5.53371 5.18528,-2.18481 6.18577,-2.97938 6.97977,-5.54307 1.18198,-3.81631 2.13783,-2.83547 2.13783,2.19368 0,3.14151 0.35508,4.03483 1.79413,4.51373 1.06386,0.35404 2.57853,0.008 3.72137,-0.84993 1.06001,-0.79582 2.77482,-2.09276 3.81071,-2.88209 1.83051,-1.3948 1.92504,-1.30382 3.36415,3.23928 1.36629,4.31312 1.37144,4.84936 0.0666,6.93752 -1.82425,2.91932 -2.56534,2.876 -2.01947,-0.11809 z m -47.51354,-7.2726 c 0,-1.23574 6.01796,-4.11156 8.61028,-4.11463 3.37009,-0.004 3.40703,1.64437 0.0767,3.426 -2.06704,1.10582 -8.68706,1.63059 -8.68706,0.68863 z m 176.65064,-2.62348 c -1.68247,-3.91898 -2.03258,-8.83952 -0.62893,-8.83952 1.42627,0 2.71356,4.60669 2.42231,8.66859 l -0.26714,3.72603 -1.52624,-3.5551 z m -156.42929,-6.485 c 3.54871,-2.74474 6.63026,-4.80372 6.84784,-4.57557 0.69136,0.72491 -3.04242,5.35722 -6.04536,7.5002 -1.59212,1.13617 -3.87573,2.06578 -5.07474,2.06578 -1.79886,0 -1.05202,-0.8724 4.27226,-4.99041 z M 204.54546,656.62996 c 1.0415,-6.61532 2.40992,-10.5899 3.31814,-9.63758 0.57523,0.60312 0.53825,2.20025 -0.10926,4.72185 -0.5382,2.09574 -0.73877,4.21725 -0.44571,4.71443 0.5263,0.89291 -1.50678,3.64424 -2.6929,3.64424 -0.33673,0 -0.36834,-1.54932 -0.0701,-3.44294 z m 224.3384,-9.11993 c -0.93947,-2.56706 2.22483,-5.05509 5.99746,-4.71565 l 3.25984,0.29333 -2.79219,2.98388 c -3.06342,3.27374 -5.58787,3.83542 -6.46511,1.43844 z m 23.33244,-4.88127 c -1.75653,-1.97691 -2.97597,-5.95204 -2.10579,-6.86443 0.25212,-0.26433 1.5748,-0.48063 2.93931,-0.48063 1.90996,0 2.48095,0.42923 2.48095,1.86505 0,2.62982 2.47338,3.3105 5.47215,1.50593 2.78185,-1.67404 6.3363,-2.0811 5.47953,-0.62753 -0.79063,1.34133 -7.53512,5.30327 -10.19567,5.98924 -1.72354,0.44443 -2.75514,0.0927 -4.07048,-1.38763 z m -34.36676,-1.72171 c -3.63466,-1.55279 -4.91221,-3.37601 -4.90531,-7.00054 0.005,-2.01987 -0.31763,-6.04808 -0.71436,-8.95164 -0.48952,-3.58265 -0.42302,-5.27918 0.20698,-5.27918 1.12095,0 2.4611,4.32886 3.26868,10.55835 0.64921,5.00783 1.74668,7.71187 3.76261,9.27058 1.53376,1.18587 0.32535,2.23288 -1.61857,1.40243 z M 213.85907,639.4509 c 0,-2.57816 3.05332,-12.43423 3.77398,-12.18236 2.58264,0.90265 2.7827,3.46653 0.60412,7.74162 -1.88824,3.7054 -4.3781,6.23084 -4.3781,4.44074 z m 194.07955,-6.15332 c -0.72824,-1.17998 -1.61315,-3.38487 -1.96645,-4.89978 -0.57406,-2.46152 -0.49207,-2.62452 0.77153,-1.53325 1.521,1.3136 3.72416,7.31483 2.97413,8.10126 -0.25032,0.26247 -1.05096,-0.48823 -1.77921,-1.66823 z m -4.91429,-14.31051 c -1.28505,-2.88191 -2.29884,-18.1446 -1.44275,-21.721 0.37544,-1.56845 1.16654,-2.37961 2.32083,-2.37961 1.48995,0 1.65076,0.37671 1.07786,2.52483 -0.37039,1.38865 -0.6734,7.3797 -0.6734,13.31343 0,5.93375 -0.0353,10.78831 -0.0784,10.78791 -0.0431,-3.8e-4 -0.58498,-1.13691 -1.20418,-2.52556 z m 49.66066,-1.60096 c -3.15977,-5.1392 -3.12894,-6.41157 0.11278,-4.65386 2.60353,1.41168 3.60858,3.09567 3.60858,6.04622 0,3.06916 -1.27055,2.59379 -3.72138,-1.39236 z m 3.4295,-6.58557 c -0.32107,-0.33665 -0.58372,-1.36954 -0.58372,-2.29532 0,-1.25066 0.66176,-1.68321 2.57517,-1.68321 3.16972,0 4.01823,1.21849 2.18622,3.13941 -1.45244,1.52294 -3.19221,1.87239 -4.17767,0.83912 z m 17.78318,-1.91276 c -1.35302,-4.00284 -2.30673,-5.28853 -3.82143,-5.15165 -1.93091,0.17449 -1.80835,-2.93635 0.17482,-4.43654 3.94377,-2.98335 3.0676,-5.84472 -2.91546,-9.52122 -3.8846,-2.38701 -5.02201,-4.0731 -2.74761,-4.0731 0.64711,0 3.64889,1.74069 6.67061,3.86821 l 5.49406,3.86821 1.64777,-2.13368 c 1.97897,-2.56253 2.09558,-3.7665 0.36482,-3.7665 -0.70564,0 -2.6293,-1.23945 -4.2748,-2.75436 -1.69468,-1.56017 -3.98571,-2.75435 -5.28421,-2.75435 -2.06602,0 -2.29236,-0.34064 -2.29236,-3.44977 l 0,-3.44976 -4.15919,-0.0881 c -15.08625,-0.31935 -16.00524,-0.49954 -17.44601,-3.42086 -1.10057,-2.23157 -1.16852,-3.38894 -0.36419,-6.20383 0.71133,-2.48941 0.72992,-4.67166 0.0664,-7.77677 -0.50739,-2.37396 -0.68979,-4.56036 -0.40532,-4.85862 1.21664,-1.27572 5.24748,2.42124 6.38177,5.85314 0.66439,2.01022 1.79407,5.41086 2.5104,7.55697 l 1.30241,3.902 10.31076,0 10.31072,0 2.31335,4.67533 c 1.27235,2.57141 2.31339,5.67007 2.31339,6.8859 0,1.2158 0.33296,2.21055 0.73991,2.21055 1.40006,0 3.6382,-3.36127 3.6382,-5.4639 0,-1.7678 0.21083,-1.92238 1.31342,-0.96295 1.8619,1.62027 1.62277,4.31438 -0.88418,9.96097 -1.19926,2.7012 -2.18049,5.48999 -2.18049,6.19731 0,0.85176 -1.01063,1.286 -2.99306,1.286 -6.00336,0 -6.48238,1.49268 -2.79914,8.72213 2.04714,4.0181 1.87306,7.80401 -0.35885,7.80401 -1.14342,0 -2.07591,-0.89643 -2.62633,-2.52484 z m 12.26831,-2.19266 c -1.1118,-1.69758 -2.97544,-4.17737 -4.14143,-5.51065 -2.6603,-3.04193 -1.46382,-3.95802 3.18319,-2.43732 3.08844,1.01068 3.57631,1.55901 4.06044,4.56364 0.30264,1.87822 0.18324,4.10249 -0.26526,4.94287 -0.70238,1.316 -1.09593,1.09978 -2.83694,-1.55854 z m -39.39145,-9.00868 c 0,-0.98483 0.68956,-2.20222 1.53236,-2.70526 1.43323,-0.8555 1.41374,-1.04052 -0.30144,-2.86101 l -1.8338,-1.9464 -2.67073,2.35638 c -2.98848,2.63665 -5.4826,3.07314 -5.4826,0.95946 0,-0.76829 -1.03099,-3.03041 -2.29108,-5.02693 -1.26008,-1.99652 -2.08289,-4.19885 -1.82846,-4.89407 0.93486,-2.55436 16.23558,-3.39047 18.50475,-1.01118 2.88482,3.02484 2.07677,3.42434 -6.38132,3.15492 -3.55382,-0.11325 -4.59948,0.14629 -4.30873,1.06936 0.26682,0.84713 2.84538,1.36342 8.45474,1.69278 5.80338,0.3408 8.30162,0.85669 8.89233,1.83624 1.39872,2.31953 0.94929,3.44108 -1.77854,4.43818 -1.76783,0.64615 -2.62689,1.57628 -2.62689,2.84414 0,1.62084 -0.55044,1.88402 -3.94028,1.88402 -3.3231,0 -3.94031,-0.28048 -3.94031,-1.79063 z m 45.2525,-7.75655 c -1.77245,-1.7023 -3.22263,-3.96897 -3.22263,-5.03702 0,-1.69167 0.51169,-1.94196 3.97044,-1.94196 l 3.97045,0 -0.58658,4.82012 c -0.32263,2.65109 -0.65913,4.91775 -0.7478,5.03706 -0.0887,0.11919 -1.61141,-1.17589 -3.38388,-2.8782 z m -112.6754,1.46247 c 0,-0.40686 1.00365,-2.16277 2.23031,-3.902 1.22667,-1.73926 2.05116,-3.88701 1.83226,-4.77281 -0.28673,-1.16021 0.25258,-1.75558 1.9289,-2.12931 1.27982,-0.2853 3.19945,-0.88774 4.26582,-1.33872 2.38358,-1.00802 3.15549,0.0708 2.10059,2.93575 -0.92986,2.52545 -3.72756,5.334 -7.97975,8.01076 -3.29024,2.07119 -4.37813,2.36846 -4.37813,1.19633 z m 42.27731,-1.28424 c -0.4998,-0.6542 -1.2039,-2.2223 -1.56463,-3.48474 -0.36076,-1.2624 -1.21734,-3.45209 -1.90354,-4.866 l -1.24761,-2.57073 -4.1141,3.58411 c -5.40618,4.70973 -7.31003,5.68886 -11.06149,5.68886 -2.85276,0 -3.12225,-0.22705 -3.12225,-2.63054 0,-1.44681 -0.82285,-3.72739 -1.82856,-5.06799 -3.15601,-4.20699 -6.60024,-5.45989 -15.23098,-5.54062 l -7.86554,-0.0736 -1.7663,3.44046 c -0.97148,1.89225 -2.06316,3.44159 -2.42596,3.44296 -1.22536,0.004 -9.41004,-8.83017 -9.41012,-10.15758 -9e-5,-1.11744 2.01834,-1.20636 13.35323,-0.5884 16.31461,0.88951 20.94038,2.14789 26.39226,7.17976 l 4.13005,3.81183 6.7389,-3.2804 c 3.70638,-1.80422 8.21651,-3.55751 10.02247,-3.89622 l 3.28358,-0.61582 0,3.37595 c 0,1.85679 -0.37904,4.1186 -0.84233,5.02627 -0.70914,1.38935 -0.29375,1.87627 2.62686,3.07919 3.91714,1.61338 4.76537,4.33097 1.35177,4.33097 -1.16461,0 -2.67758,0.22537 -3.3622,0.50083 -0.68462,0.27549 -1.6537,-0.0343 -2.15351,-0.68858 z m -180.6198,-1.41896 c 0.021,-2.39049 5.47745,-8.40586 7.6784,-8.46342 1.77083,-0.0463 -1.07118,4.99339 -4.08476,7.24337 -2.71994,2.0308 -3.60295,2.33058 -3.59364,1.22005 z m 81.2615,-17.70544 c -2.09829,-2.25494 -5.03946,-5.6073 -6.53594,-7.44974 -1.4965,-1.84239 -3.74972,-4.05664 -5.00715,-4.92054 -2.85053,-1.95836 -2.20273,-3.32312 1.23514,-2.60219 2.22271,0.46611 2.59292,0.26518 2.59292,-1.40725 0,-1.22045 0.55468,-1.95099 1.48141,-1.95099 0.81476,0 4.13439,-1.65263 7.37697,-3.67247 7.89147,-4.91582 10.23455,-4.77563 11.5103,0.68856 0.32749,1.40275 0.087,2.06577 -0.74916,2.06577 -0.67731,0 -1.23147,0.38364 -1.23147,0.85254 0,0.46891 -0.61918,1.50179 -1.37596,2.2953 -2.64881,2.77736 2.62556,1.66012 6.19187,-1.3116 4.16822,-3.47323 5.17349,-3.48122 4.51631,-0.0359 -0.48221,2.52812 -0.3021,2.76096 2.57288,3.32649 1.70027,0.33446 4.64257,0.38996 6.53844,0.1234 2.57227,-0.36173 3.44702,-0.16283 3.44702,0.78389 0,2.50112 -4.03174,4.21007 -9.39141,3.98069 -4.43187,-0.18971 -5.41601,0.0861 -7.27968,2.04028 -1.18526,1.24279 -3.7579,3.20419 -5.71699,4.35869 -1.95909,1.15453 -4.19162,3.1872 -4.9612,4.51711 l -1.39925,2.41798 -3.81505,-4.09988 z m 24.90189,1.87795 c -1.56517,-1.00064 -2.84579,-1.99827 -2.84579,-2.217 0,-0.2188 2.5052,-1.27183 5.56708,-2.34021 5.68363,-1.98318 8.66572,-4.4477 9.69513,-8.01242 0.65929,-2.28296 9.83106,-6.31877 21.81127,-9.59753 7.81977,-2.14008 22.50427,-3.24805 29.16593,-2.20062 l 4.22818,0.66484 -2.61687,1.46478 c -1.9386,1.0851 -6.36163,1.61528 -17.06462,2.04551 -14.12171,0.56764 -17.51247,1.12592 -17.51247,2.88342 0,0.47668 1.4172,1.4876 3.14931,2.24643 2.62593,1.15046 4.23085,1.20784 9.65781,0.34526 6.9878,-1.11063 10.96518,-0.65292 12.63266,1.45378 0.88323,1.11588 0.36463,1.31816 -3.37945,1.31816 -4.2767,0 -6.52658,1.17456 -7.37757,3.85147 -0.26377,0.82971 -3.0184,0.34539 -10.36676,-1.8227 -5.50414,-1.62396 -11.79819,-2.95138 -13.98678,-2.94979 -3.72511,0.002 -4.17825,0.28144 -7.0939,4.36396 -1.71305,2.39858 -3.84911,5.70383 -4.74684,7.34496 -1.93821,3.54329 -4.63672,3.89364 -8.91632,1.1577 z m 61.95026,0.38725 c 0,-1.53387 3.01203,-5.01157 5.72124,-6.60576 1.66183,-0.97786 1.66839,-1.10762 0.18913,-3.74122 -2.22638,-3.96395 -1.95741,-4.89954 1.31343,-4.56888 2.2776,0.23025 2.90622,0.74599 3.14858,2.58301 0.51016,3.86715 1.84792,4.84362 3.57394,2.60864 1.22344,-1.58422 2.75016,-2.02926 8.2257,-2.3977 3.69787,-0.24884 6.72342,-0.17096 6.72342,0.17297 0,0.34396 -0.61676,1.87596 -1.37058,3.40445 -1.30383,2.64365 -1.28247,2.80319 0.43779,3.27487 2.1247,0.58262 2.28923,1.4747 0.55094,2.98737 -1.47334,1.28211 -3.96448,0.21261 -7.49874,-3.21957 -1.99297,-1.93534 -2.55816,-2.0428 -6.30941,-1.19934 -2.26618,0.50957 -6.50201,2.54052 -9.41294,4.51326 -3.82803,2.59425 -5.29259,3.19968 -5.29259,2.1879 z m 59.90099,-7.04948 c -3.98725,-0.80707 -4.57278,-1.23725 -5.55301,-4.07964 -0.6027,-1.74759 -0.88465,-3.39883 -0.62661,-3.66941 0.25805,-0.27058 2.93191,0.38008 5.94195,1.44591 3.01,1.06584 6.38132,1.93788 7.49179,1.93788 2.23191,0 2.78229,2.50493 0.96828,4.40697 -1.18085,1.23816 -1.91797,1.23442 -8.2224,-0.0417 z m -2.76666,-14.45449 c -3.32384,-2.12495 -3.48867,-2.81987 -1.04804,-4.41803 1.47383,-0.9651 1.74991,-1.95473 1.53233,-5.49279 -0.3853,-6.26559 -2.68677,-7.25485 -13.72679,-5.90022 -4.71986,0.57911 -8.56054,1.5093 -8.94833,2.16723 -0.37367,0.63397 -0.44827,2.36441 -0.1658,3.84543 0.50216,2.63272 0.44719,2.68008 -2.4654,2.12409 -1.63846,-0.31275 -11.22472,-0.99272 -21.30285,-1.51105 -10.0781,-0.51831 -18.51174,-1.13939 -18.74139,-1.3802 -0.2297,-0.24083 1.12051,-1.1292 3.00043,-1.97418 4.01846,-1.80618 12.82262,-1.94082 19.80311,-0.30285 4.29232,1.00721 5.07008,0.93298 8.2944,-0.79178 3.34876,-1.79134 8.15635,-6.73162 8.15635,-8.3815 0,-1.70271 -4.47964,-1.70378 -11.272,-0.002 -9.27622,2.32308 -9.39671,2.31418 -12.48405,-0.92299 -2.89501,-3.03553 -1.66711,-3.17225 -13.14196,1.46329 -3.04067,1.22837 -4.56218,1.40707 -6.05063,0.71067 l -1.9885,-0.93036 2.45347,-2.38538 c 1.54443,-1.50159 2.25539,-2.92653 1.9189,-3.84594 -0.9939,-2.71584 -4.28592,-1.59734 -8.16987,2.77579 -3.1251,3.51869 -4.13546,4.13818 -5.96426,3.65691 -2.62194,-0.68999 -7.82487,1.39287 -9.00565,3.60522 -0.7902,1.48053 -0.9731,1.47883 -3.16835,-0.0294 -1.84463,-1.26731 -3.28396,-1.46599 -6.91251,-0.95414 -6.42899,0.90686 -8.73748,0.93584 -10.43838,0.1311 -1.14577,-0.54214 -1.88695,0.14255 -3.30138,3.04955 -1.82085,3.74241 -1.8324,3.74865 -6.95773,3.74865 -4.87588,0 -5.15645,-0.12406 -5.58357,-2.46664 -0.68889,-3.77861 -0.0628,-4.51437 5.72341,-6.72655 5.00227,-1.91244 5.24988,-2.13908 3.66482,-3.35463 -1.07252,-0.82251 -3.30781,-1.2042 -6.05673,-1.03427 -3.49432,0.21593 -4.54942,0.67635 -5.32974,2.32519 l -0.97292,2.05579 -0.98837,-2.05579 c -0.54359,-1.13072 -1.62692,-4.73167 -2.40733,-8.00215 -0.78043,-3.27048 -1.77037,-6.63472 -2.1998,-7.47612 -0.63674,-1.24747 -0.25923,-1.62669 2.04554,-2.05484 15.03842,-2.79351 56.81125,-3.69529 73.31394,-1.58267 19.26633,2.46636 40.44538,8.346 51.80538,14.38192 3.68587,1.95843 5.34139,2.21896 14.09986,2.21896 5.77671,0 10.30866,-0.40371 10.84501,-0.96608 1.99338,-2.09014 20.50242,-11.61278 20.9839,-10.79592 0.28181,0.47809 0.68997,3.21684 0.90702,6.08611 0.49544,6.54892 -1.29884,14.25903 -3.41726,14.6842 -1.84307,0.36987 -1.98462,-1.70017 -0.51123,-7.47639 0.56162,-2.20171 0.71275,-4.78985 0.33587,-5.75143 -0.56264,-1.43542 -0.91268,-1.00896 -1.95616,2.38328 -2.18631,7.10739 -4.03956,11.40128 -5.84483,13.54225 -3.25712,3.8628 -5.69957,1.84714 -3.44094,-2.83967 1.81254,-3.76116 0.77537,-4.02867 -2.81262,-0.72546 -4.04525,3.72414 -5.51307,3.68097 -5.85654,-0.17231 -0.25859,-2.90109 -0.39903,-3.01381 -2.89863,-2.32689 -1.44478,0.39707 -3.94179,1.87413 -5.54891,3.28236 l -2.92203,2.56046 1.86993,2.49261 c 1.02846,1.37093 4.79549,4.00869 8.37121,5.86167 3.57571,1.85299 6.31437,3.68616 6.08592,4.07377 -0.87985,1.49274 -8.82775,3.63078 -13.48474,3.62751 -3.31794,-0.002 -5.78931,-0.58549 -7.72463,-1.82274 z m -7.22389,-20.42021 c -1.20397,-0.55297 -3.64351,-2.01041 -5.42121,-3.23881 -3.25829,-2.25144 -5.08624,-2.14683 -5.08624,0.29109 0,0.72766 0.0986,1.32923 0.21891,1.33682 0.12039,0.007 1.79503,0.60922 3.72141,1.33689 1.92634,0.72768 4.68456,1.31323 6.12934,1.30122 l 2.62685,-0.0221 -2.18906,-1.00539 z m -81.94225,-4.93637 c 1.76088,-0.70849 1.80608,-3.92152 0.0652,-4.62204 -2.11065,-0.84927 -7.47992,0.55801 -8.04761,2.10923 -0.90964,2.48545 4.11755,4.06796 7.98258,2.51281 z m 60.92734,-2.43788 c 1.97105,-0.80574 1.62226,-1.02108 -3.50249,-2.16241 -7.01155,-1.56151 -8.12837,-1.2677 -6.75764,1.77782 0.88381,1.96365 1.43275,2.17615 4.53826,1.75665 1.94303,-0.26248 4.51787,-0.87989 5.72187,-1.37206 z m -13.6513,-5.13364 c 0.77642,-1.3172 -3.70007,-2.8886 -8.22878,-2.8886 -5.08993,0 -6.97915,1.79202 -2.03231,1.92775 1.83439,0.0501 4.32034,0.4223 5.52432,0.8266 3.02607,1.01617 4.19741,1.04936 4.73677,0.13418 z m -61.0474,28.58276 c -3.63745,-0.57335 -2.361,-2.50584 1.8712,-2.83289 2.73203,-0.21106 3.65336,0.0535 3.65336,1.04942 0,1.06095 -2.30247,2.88306 -2.9174,2.30876 -0.0808,-0.0755 -1.25424,-0.31204 -2.60716,-0.52529 z m -13.73914,-1.11362 c 0,-3.93306 5.74779,-8.17479 8.77525,-6.4759 1.87485,1.05208 1.41464,3.10748 -1.20651,5.38843 -1.87965,1.6357 -7.56874,2.4531 -7.56874,1.08747 z m -31.52238,-3.55958 c 0,-2.3513 4.70713,-5.88725 6.01359,-4.51739 1.41613,1.48487 1.22879,2.91674 -0.60989,4.6615 -2.18943,2.07755 -5.4037,1.99183 -5.4037,-0.14411 z m 61.29353,-3.82397 c 0,-1.43723 4.23914,-3.94601 5.68479,-3.36435 0.72611,0.29215 1.32019,1.37047 1.32019,2.39626 0,1.5638 -0.5657,1.86505 -3.50249,1.86505 -1.92638,0 -3.50249,-0.40363 -3.50249,-0.89696 z M 326.772,529.84878 c -2.52865,-2.14696 -1.79859,-3.37768 2.16988,-3.65793 2.7827,-0.19655 3.12617,0.0237 3.12617,2.00509 0,1.22418 -0.62328,2.47659 -1.38506,2.78309 -1.83487,0.73827 -1.64595,0.79288 -3.91099,-1.13025 z m 183.93722,-10.248 c -0.0411,-5.05615 -0.61134,-8.30242 -2.14637,-12.2167 -1.81396,-4.62551 -1.8981,-5.2936 -0.63594,-5.04966 3.97429,0.76817 6.98295,16.12775 4.2105,21.49531 -1.35186,2.61725 -1.37319,2.55409 -1.42819,-4.22895 z m 6.09266,-3.74196 c -0.0168,-3.0377 -0.7896,-5.32474 -3.06469,-9.06916 -2.96089,-4.87319 -3.59958,-7.55071 -2.51076,-10.52584 0.84226,-2.30139 1.96948,-1.70923 3.35237,1.76116 1.37332,3.44632 3.09873,4.07708 4.90614,1.79356 0.89018,-1.12465 0.91247,-2.37996 0.10722,-6.03781 -1.3515,-6.13915 -1.30434,-6.53359 0.70155,-5.86605 3.15308,1.04931 5.41041,-1.37643 9.25604,-9.94658 2.07426,-4.62265 4.3814,-9.23111 5.12699,-10.24106 1.25143,-1.69516 1.3577,-1.15555 1.38339,7.02562 l 0.028,8.86186 -2.75753,1.00792 c -1.51663,0.55438 -3.44529,1.00794 -4.28588,1.00794 -1.31794,0 -1.42339,0.47406 -0.76587,3.44295 0.4194,1.8936 0.77193,4.98043 0.78341,6.85965 0.0189,3.09203 -0.24949,3.48965 -2.82488,4.18458 -2.31944,0.62587 -2.88553,1.26752 -3.06083,3.46919 -0.5348,6.71787 -2.15417,12.19894 -4.19931,14.21352 l -2.15279,2.1206 -0.0224,-4.06205 z M 328.59636,504.97123 c -1.14898,-2.25106 -1.13683,-4.20303 0.0542,-8.70078 1.30761,-4.93813 2.51115,-2.68266 2.52849,4.73843 0.0126,5.7931 -0.91841,7.22294 -2.58264,3.96235 z m -4.65578,-7.09286 c -0.63425,-3.32517 0.83414,-9.78887 2.04546,-9.0039 1.12191,0.72704 0.93303,4.78689 -0.40318,8.66715 l -1.09821,3.18905 -0.54407,-2.8523 z m -4.81667,-3.69503 c -0.67278,-1.26584 -1.06581,-6.09064 -1.06581,-13.0832 l 0,-11.07779 2.62685,0 c 2.50747,0 2.62666,0.17739 2.622,3.90201 -0.002,2.14609 -0.42413,5.48506 -0.93652,7.4199 -0.51239,1.93481 -1.21266,6.06635 -1.55618,9.18118 -0.56111,5.08796 -0.73282,5.45958 -1.69034,3.6579 z m 220.37378,-29.89922 c -0.17441,-2.15691 0.25928,-6.65564 0.68576,-7.11397 0.83629,-0.89875 2.90951,3.1506 2.90951,5.68275 0,1.96679 -0.41565,2.57887 -1.75125,2.57887 -0.96317,0 -1.79299,-0.51643 -1.84402,-1.14765 z m -232.94687,-3.44296 c -1.27226,-2.27231 -4.46897,-8.92668 -7.10376,-14.78742 -2.63481,-5.86072 -5.25589,-10.95741 -5.82466,-11.326 -0.56874,-0.36855 -1.58037,-0.19478 -2.24807,0.38634 -0.95368,0.8299 -1.42943,0.6344 -2.21855,-0.91163 -0.55248,-1.08245 -2.15607,-2.38899 -3.56354,-2.90346 -2.05098,-0.74969 -2.55902,-1.47488 -2.55902,-3.6529 0,-1.49464 -0.819,-6.86164 -1.82,-11.92666 -1.001,-5.06501 -1.61826,-9.42067 -1.37169,-9.67922 0.9881,-1.03604 2.19471,0.83411 2.74614,4.25637 0.66703,4.13984 2.76575,6.70817 3.49986,4.28298 0.2465,-0.8143 0.65811,-2.16938 0.91468,-3.01127 0.30762,-1.00928 0.76155,-1.22135 1.33266,-0.62255 0.5711,0.59881 0.43668,3.05628 -0.39455,7.21429 l -1.26071,6.30614 2.66924,2.34995 c 6.01529,5.29578 9.54991,9.9868 11.79223,15.65015 2.94943,7.4493 2.57211,7.04178 4.67363,5.04765 2.84067,-2.69557 3.58281,-0.71407 3.30298,8.81896 l -0.25362,8.63983 -2.31325,-4.13155 z"
       id="path2991"
       inkscape:connector-curvature="0" />
  </g>
</svg>
